<svg width="48" height="48" viewBox="0 0 48 48" fill="none" xmlns="http://www.w3.org/2000/svg">
<path d="M36 4.0001H12C11.2159 3.99562 10.4385 4.14577 9.71247 4.44196C8.98641 4.73815 8.32586 5.17457 7.7686 5.72626C7.21134 6.27794 6.7683 6.93407 6.46483 7.65712C6.16136 8.38017 6.0034 9.15595 6 9.9401L6 31.7601C6.0034 32.5442 6.16136 33.32 6.46483 34.0431C6.7683 34.7661 7.21134 35.4223 7.7686 35.9739C8.32586 36.5256 8.98641 36.962 9.71247 37.2582C10.4385 37.5544 11.2159 37.7046 12 37.7001H13.52C14.3065 37.6969 15.0858 37.8489 15.8134 38.1475C16.541 38.4461 17.2025 38.8853 17.76 39.4401L21.18 42.8201C21.9359 43.5606 22.9519 43.9753 24.01 43.9753C25.0681 43.9753 26.0841 43.5606 26.84 42.8201L30.26 39.4401C31.3874 38.3219 32.9121 37.6962 34.5 37.7001H36C36.7841 37.7046 37.5615 37.5544 38.2875 37.2582C39.0136 36.962 39.6741 36.5256 40.2314 35.9739C40.7887 35.4223 41.2317 34.7661 41.5352 34.0431C41.8386 33.32 41.9966 32.5442 42 31.7601V9.9401C41.9966 9.15595 41.8386 8.38017 41.5352 7.65712C41.2317 6.93407 40.7887 6.27794 40.2314 5.72626C39.6741 5.17457 39.0136 4.73815 38.2875 4.44196C37.5615 4.14577 36.7841 3.99562 36 4.0001ZM20.76 26.0201C21.1578 26.0201 21.5394 26.1781 21.8207 26.4594C22.102 26.7407 22.26 27.1223 22.26 27.5201C22.26 27.9179 22.102 28.2995 21.8207 28.5808C21.5394 28.8621 21.1578 29.0201 20.76 29.0201H15.4C14.966 29.0202 14.5382 28.9169 14.1521 28.7186C13.766 28.5204 13.4328 28.2329 13.18 27.8801C12.9389 27.5504 12.7788 27.1686 12.7128 26.7655C12.6468 26.3624 12.6767 25.9495 12.8 25.5601C13.5753 23.7035 14.9668 22.1707 16.74 21.2201C18.34 20.1401 19.24 19.4601 19.24 18.3001C19.2373 17.8041 19.0378 17.3296 18.6852 16.9807C18.3327 16.6319 17.856 16.4374 17.36 16.4401C16.864 16.4427 16.3895 16.6423 16.0406 16.9949C15.6918 17.3474 15.4973 17.8241 15.5 18.3201C15.5 18.7179 15.342 19.0995 15.0607 19.3808C14.7794 19.6621 14.3978 19.8201 14 19.8201C13.6022 19.8201 13.2206 19.6621 12.9393 19.3808C12.658 19.0995 12.5 18.7179 12.5 18.3201C12.5 17.6792 12.6262 17.0447 12.8715 16.4526C13.1167 15.8605 13.4762 15.3226 13.9293 14.8694C14.3825 14.4163 14.9204 14.0568 15.5125 13.8116C16.1046 13.5663 16.7391 13.4401 17.38 13.4401C18.0209 13.4401 18.6554 13.5663 19.2475 13.8116C19.8396 14.0568 20.3775 14.4163 20.8307 14.8694C21.2838 15.3226 21.6433 15.8605 21.8885 16.4526C22.1338 17.0447 22.26 17.6792 22.26 18.3201C22.26 21.1401 20.14 22.5801 18.44 23.7401C17.4267 24.3075 16.5523 25.0931 15.88 26.0401H20.76V26.0201ZM34 26.1601H33.58V27.5401C33.58 27.9379 33.422 28.3195 33.1407 28.6008C32.8594 28.8821 32.4778 29.0401 32.08 29.0401C31.6822 29.0401 31.3006 28.8821 31.0193 28.6008C30.738 28.3195 30.58 27.9379 30.58 27.5401V26.1601H26.64C26.1594 26.1594 25.6873 26.0336 25.27 25.7951C24.8527 25.5567 24.5046 25.2138 24.26 24.8001C24.0144 24.3817 23.8849 23.9053 23.8849 23.4201C23.8849 22.9349 24.0144 22.4585 24.26 22.0401C25.62 19.7001 27.2 17.0401 28.64 14.7201C28.9448 14.226 29.4031 13.8453 29.9446 13.6362C30.4862 13.4271 31.0814 13.401 31.6392 13.562C32.197 13.723 32.6867 14.0621 33.0336 14.5277C33.3804 14.9933 33.5653 15.5596 33.56 16.1401V23.1801H34C34.397 23.1827 34.777 23.3416 35.0578 23.6223C35.3385 23.9031 35.4974 24.2831 35.5 24.6801C35.4963 25.0749 35.3364 25.4523 35.0554 25.7296C34.7743 26.0069 34.3949 26.1617 34 26.1601Z" fill="#163172"/>
<path d="M30.5801 23.1603V17.2803C29.4001 19.2003 28.1801 21.2603 27.0801 23.1403H30.5801V23.1603Z" fill="#163172"/>
</svg>
