<svg width="48" height="48" viewBox="0 0 48 48" fill="none" xmlns="http://www.w3.org/2000/svg">
<path d="M44 15.62V25H35.84C35.4941 24.9245 35.184 24.7342 34.96 24.46L32.88 20.52C32.5507 19.8036 32.0196 19.1988 31.3517 18.7796C30.6839 18.3604 29.9083 18.1451 29.12 18.16C28.3335 18.229 27.5845 18.5273 26.9659 19.0179C26.3473 19.5085 25.8863 20.1699 25.64 20.92L22.88 27.84L22.48 26.8C21.9326 25.5076 21.0249 24.3999 19.8653 23.6091C18.7057 22.8183 17.3431 22.3777 15.94 22.34L4 22.4V15.62C4 8.34 8.34 4 15.62 4H32.38C39.66 4 44 8.34 44 15.62Z" fill="#163172"/>
<path d="M44 32.3798V27.9998H35.84C35.1194 27.9618 34.4194 27.7466 33.8019 27.3733C33.1844 27.0001 32.6685 26.4802 32.3 25.8598L30.22 21.9198C29.66 20.8598 28.86 20.9198 28.42 22.0198L23.82 33.6398C23.32 34.9398 22.48 34.9398 21.96 33.6398L19.68 27.8798C19.3552 27.154 18.8357 26.5324 18.179 26.084C17.5223 25.6356 16.7542 25.378 15.96 25.3398L4 25.3998V32.3798C4 39.5398 8.2 43.8598 15.26 43.9798C15.48 43.9998 15.72 43.9998 15.94 43.9998H31.94C32.24 43.9998 32.54 43.9998 32.82 43.9798C39.84 43.8198 44 39.5198 44 32.3798Z" fill="#163172"/>
<path d="M3.99994 25.3999V32.0199C3.95994 31.3799 3.93994 30.6999 3.93994 29.9999V25.3999H3.99994Z" fill="#163172"/>
</svg>
