<svg width="48" height="48" viewBox="0 0 48 48" fill="none" xmlns="http://www.w3.org/2000/svg">
<path d="M27.1 40.3198C26.58 40.5398 26.02 40.7398 25.42 40.9398L22.26 41.9798C14.32 44.5398 10.1399 42.3998 7.55995 34.4598L4.99995 26.5598C2.43995 18.6198 4.55995 14.4198 12.4999 11.8598L15.5719 10.8398C15.1633 11.9156 14.8292 13.0182 14.5719 14.1398L12.6119 22.5198C10.412 31.9398 13.632 37.1398 23.052 39.3798L27.1 40.3198Z" fill="#163172"/>
<path d="M34.3379 6.42002L30.9999 5.64002C24.3199 4.06002 20.3399 5.36002 17.9999 10.2C17.345 11.6073 16.8487 13.083 16.5199 14.6L14.5599 22.98C12.5999 31.34 15.1799 35.46 23.5199 37.44L26.8799 38.24C27.9441 38.5042 29.0274 38.6848 30.1199 38.78C36.3599 39.38 39.6799 36.46 41.3599 29.24L43.3199 20.88C45.2799 12.52 42.7199 8.38002 34.3379 6.42002ZM30.5779 26.66C30.4941 26.9827 30.3049 27.2681 30.0404 27.471C29.7759 27.6739 29.4512 27.7827 29.1179 27.78C28.9904 27.7756 28.8634 27.7622 28.7379 27.74L22.9179 26.26C22.7275 26.2114 22.5485 26.1258 22.3911 26.008C22.2338 25.8903 22.1012 25.7427 22.0009 25.5737C21.9006 25.4047 21.8346 25.2176 21.8067 25.0231C21.7787 24.8286 21.7893 24.6304 21.8379 24.44C21.8865 24.2496 21.9721 24.0706 22.0898 23.9133C22.2076 23.756 22.3552 23.6234 22.5242 23.5231C22.6932 23.4228 22.8803 23.3568 23.0748 23.3288C23.2693 23.3008 23.4675 23.3114 23.6579 23.36L29.4779 24.84C29.6703 24.8861 29.8517 24.97 30.0115 25.0867C30.1713 25.2034 30.3063 25.3507 30.4088 25.52C30.5113 25.6892 30.5792 25.8772 30.6086 26.0728C30.6379 26.2685 30.6282 26.4681 30.5799 26.66H30.5779ZM36.4379 19.9C36.3541 20.2227 36.1649 20.5081 35.9004 20.711C35.6359 20.9139 35.3112 21.0227 34.9779 21.02C34.8504 21.0156 34.7234 21.0022 34.5979 20.98L24.8979 18.52C24.5133 18.4219 24.1835 18.175 23.9809 17.8337C23.7784 17.4924 23.7197 17.0846 23.8179 16.7C23.916 16.3155 24.1629 15.9856 24.5042 15.7831C24.8455 15.5805 25.2533 15.5219 25.6379 15.62L35.3379 18.08C35.5315 18.1239 35.7144 18.2064 35.8755 18.3225C36.0366 18.4387 36.1726 18.5861 36.2755 18.7559C36.3783 18.9258 36.4459 19.1147 36.4741 19.3112C36.5024 19.5078 36.4907 19.7081 36.4399 19.9H36.4379Z" fill="#163172"/>
</svg>
