<svg width="48" height="48" viewBox="0 0 48 48" fill="none" xmlns="http://www.w3.org/2000/svg">
<path d="M32.38 4H15.62C8.34 4 4 8.34 4 15.62V32.36C4 39.66 8.34 44 15.62 44H32.36C39.64 44 43.98 39.66 43.98 32.38V15.62C44 8.34 39.66 4 32.38 4ZM15.26 36.3C15.26 36.6978 15.102 37.0794 14.8207 37.3607C14.5394 37.642 14.1578 37.8 13.76 37.8C13.3622 37.8 12.9806 37.642 12.6993 37.3607C12.418 37.0794 12.26 36.6978 12.26 36.3V32.16C12.26 31.7622 12.418 31.3806 12.6993 31.0993C12.9806 30.818 13.3622 30.66 13.76 30.66C14.1578 30.66 14.5394 30.818 14.8207 31.0993C15.102 31.3806 15.26 31.7622 15.26 32.16V36.3ZM25.5 36.3C25.5 36.6978 25.342 37.0794 25.0607 37.3607C24.7794 37.642 24.3978 37.8 24 37.8C23.6022 37.8 23.2206 37.642 22.9393 37.3607C22.658 37.0794 22.5 36.6978 22.5 36.3V28C22.5 27.6022 22.658 27.2206 22.9393 26.9393C23.2206 26.658 23.6022 26.5 24 26.5C24.3978 26.5 24.7794 26.658 25.0607 26.9393C25.342 27.2206 25.5 27.6022 25.5 28V36.3ZM35.74 36.3C35.74 36.6978 35.582 37.0794 35.3007 37.3607C35.0194 37.642 34.6378 37.8 34.24 37.8C33.8422 37.8 33.4606 37.642 33.1793 37.3607C32.898 37.0794 32.74 36.6978 32.74 36.3V23.86C32.74 23.4622 32.898 23.0806 33.1793 22.7993C33.4606 22.518 33.8422 22.36 34.24 22.36C34.6378 22.36 35.0194 22.518 35.3007 22.7993C35.582 23.0806 35.74 23.4622 35.74 23.86V36.3ZM35.74 17.54C35.74 17.9378 35.582 18.3194 35.3007 18.6007C35.0194 18.882 34.6378 19.04 34.24 19.04C33.8422 19.04 33.4606 18.882 33.1793 18.6007C32.898 18.3194 32.74 17.9378 32.74 17.54V15.6C27.6573 20.8435 21.2067 24.5573 14.12 26.32C14.003 26.353 13.8814 26.3665 13.76 26.36C13.4248 26.3584 13.0995 26.2456 12.8353 26.0393C12.5711 25.833 12.3828 25.5448 12.3 25.22C12.2517 25.0282 12.2418 24.8288 12.2711 24.6332C12.3003 24.4376 12.368 24.2498 12.4703 24.0805C12.5726 23.9113 12.7074 23.764 12.867 23.6472C13.0266 23.5304 13.2077 23.4464 13.4 23.4C20.0886 21.732 26.1607 18.1859 30.9 13.18H28.4C28.0022 13.18 27.6206 13.022 27.3393 12.7407C27.058 12.4594 26.9 12.0778 26.9 11.68C26.9 11.2822 27.058 10.9006 27.3393 10.6193C27.6206 10.338 28.0022 10.18 28.4 10.18H34.26C34.34 10.18 34.4 10.22 34.48 10.22C34.5817 10.2304 34.6821 10.2505 34.78 10.28C34.8775 10.3257 34.9711 10.3792 35.06 10.44C35.12 10.48 35.18 10.5 35.24 10.54C35.26 10.56 35.26 10.58 35.28 10.58C35.3525 10.655 35.4193 10.7352 35.48 10.82C35.5405 10.8836 35.5881 10.9583 35.62 11.04C35.6515 11.1236 35.6717 11.211 35.68 11.3C35.7114 11.4042 35.7315 11.5115 35.74 11.62C35.74 11.64 35.76 11.66 35.76 11.68V17.54H35.74Z" fill="#163172"/>
</svg>
