<svg width="338" height="335" viewBox="0 0 338 335" fill="none" xmlns="http://www.w3.org/2000/svg">
<path d="M174.793 298.825C254.072 298.825 318.34 234.557 318.34 155.277C318.34 75.9972 254.072 11.7285 174.793 11.7285C95.5134 11.7285 31.2444 75.9972 31.2444 155.277C31.2444 234.557 95.5134 298.825 174.793 298.825Z" stroke="#D1E8F7" stroke-width="0.767048" stroke-miterlimit="10"/>
<path d="M58.0134 76.0456C60.8058 76.0456 63.0695 73.7818 63.0695 70.9894C63.0695 68.1969 60.8058 65.9336 58.0134 65.9336C55.2213 65.9336 52.9576 68.1969 52.9576 70.9894C52.9576 73.7818 55.2213 76.0456 58.0134 76.0456Z" fill="#FEBB94"/>
<path d="M318.34 165.8C321.133 165.8 323.399 163.536 323.399 160.744C323.399 157.951 321.133 155.688 318.34 155.688C315.55 155.688 313.285 157.951 313.285 160.744C313.285 163.536 315.55 165.8 318.34 165.8Z" fill="#5661AE"/>
<path d="M180.681 303.881C183.473 303.881 185.737 301.617 185.737 298.825C185.737 296.033 183.473 293.769 180.681 293.769C177.888 293.769 175.625 296.033 175.625 298.825C175.625 301.617 177.888 303.881 180.681 303.881Z" fill="#1C85E8"/>
<path d="M178.119 263.305C237.259 263.305 285.202 215.363 285.202 156.222C285.202 97.0816 237.259 49.1389 178.119 49.1389C118.978 49.1389 71.035 97.0816 71.035 156.222C71.035 215.363 118.978 263.305 178.119 263.305Z" stroke="#D1E8F7" stroke-width="0.572201" stroke-miterlimit="10"/>
<path d="M283.366 181.564C285.449 181.564 287.138 179.876 287.138 177.793C287.138 175.71 285.449 174.021 283.366 174.021C281.283 174.021 279.594 175.71 279.594 177.793C279.594 179.876 281.283 181.564 283.366 181.564Z" fill="#FEBB94"/>
<path d="M78.8004 200.236C80.8836 200.236 82.5722 198.548 82.5722 196.465C82.5722 194.382 80.8836 192.693 78.8004 192.693C76.7176 192.693 75.029 194.382 75.029 196.465C75.029 198.548 76.7176 200.236 78.8004 200.236Z" fill="#5661AE"/>
<path d="M130.152 64.1534C132.236 64.1534 133.924 62.4648 133.924 60.3815C133.924 58.2987 132.236 56.6101 130.152 56.6101C128.069 56.6101 126.381 58.2987 126.381 60.3815C126.381 62.4648 128.069 64.1534 130.152 64.1534Z" fill="#1C85E8"/>
<path d="M233.851 274.803H110.187C104.822 274.803 100.891 270.454 101.407 265.089L122.517 45.4812C123.032 40.1161 127.8 35.7667 133.165 35.7667H256.829C262.194 35.7667 266.126 40.1161 265.61 45.4812L244.499 265.089C243.984 270.454 239.216 274.803 233.851 274.803Z" fill="#1C85E8"/>
<path d="M225.136 274.803H101.471C96.1066 274.803 92.1755 270.454 92.691 265.089L113.801 45.4812C114.317 40.1161 119.085 35.7667 124.45 35.7667H248.114C253.479 35.7667 257.41 40.1161 256.895 45.4812L235.784 265.089C235.268 270.454 230.501 274.803 225.136 274.803Z" fill="url(#paint0_linear_584_466)"/>
<path d="M220.449 267.502H107.562C102.59 267.502 98.9463 263.472 99.4241 258.5L119.268 52.0699C119.746 47.0978 124.164 43.0674 129.136 43.0674H242.024C246.996 43.0674 250.639 47.0978 250.161 52.0699L230.318 258.5C229.839 263.472 225.422 267.502 220.449 267.502Z" fill="white"/>
<path d="M229.502 136.976L108.403 136.868C107.908 136.881 107.416 136.789 106.96 136.597C106.504 136.406 106.094 136.119 105.757 135.756C105.421 135.393 105.166 134.962 105.009 134.493C104.852 134.024 104.797 133.526 104.848 133.034L111.377 60.5397C111.495 59.4935 111.992 58.5269 112.774 57.8221C113.556 57.1169 114.568 56.7227 115.621 56.7126L236.721 56.8203C237.215 56.8071 237.707 56.8992 238.163 57.0909C238.619 57.283 239.03 57.5696 239.366 57.9326C239.702 58.2956 239.957 58.7258 240.114 59.1953C240.271 59.6644 240.326 60.1619 240.275 60.6542L233.746 133.149C233.628 134.195 233.131 135.161 232.349 135.866C231.568 136.571 230.555 136.966 229.502 136.976Z" fill="url(#paint1_linear_584_466)"/>
<path d="M225.689 215.089H174.505C174.128 215.097 173.753 215.023 173.406 214.873C173.06 214.723 172.749 214.501 172.496 214.221C172.243 213.94 172.053 213.609 171.939 213.249C171.824 212.889 171.789 212.509 171.834 212.135L178.049 147.482C178.139 146.68 178.517 145.939 179.113 145.395C179.709 144.852 180.481 144.544 181.288 144.528H232.473C232.85 144.52 233.225 144.594 233.571 144.744C233.918 144.893 234.228 145.116 234.481 145.396C234.735 145.676 234.925 146.007 235.039 146.367C235.153 146.727 235.189 147.107 235.143 147.482L228.928 212.135C228.838 212.936 228.461 213.677 227.865 214.221C227.269 214.764 226.496 215.073 225.689 215.089Z" fill="url(#paint2_linear_584_466)"/>
<path d="M213.487 179.423C219.26 173.922 219.888 165.211 214.89 159.968C209.892 154.725 201.162 154.934 195.39 160.435C189.618 165.937 188.989 174.647 193.987 179.891C198.984 185.134 207.715 184.925 213.487 179.423Z" stroke="#EF6A77" stroke-width="4.67868" stroke-miterlimit="10"/>
<path d="M197.95 182.647C193.161 180.579 190.126 175.664 190.678 169.929C191.408 162.329 198.161 156.168 205.761 156.168" stroke="white" stroke-width="4.67868" stroke-miterlimit="10" stroke-linecap="round"/>
<path d="M196.813 194.476H207.344" stroke="white" stroke-width="2.39491" stroke-miterlimit="10" stroke-linecap="round"/>
<path d="M195.667 206.402H206.197" stroke="white" stroke-width="2.39491" stroke-miterlimit="10" stroke-linecap="round"/>
<path opacity="0.4" d="M190.631 200.372H212.393" stroke="white" stroke-width="2.39491" stroke-miterlimit="10" stroke-linecap="round"/>
<path d="M163.094 215.089H111.91C111.532 215.097 111.157 215.023 110.811 214.873C110.465 214.723 110.154 214.501 109.901 214.221C109.648 213.94 109.458 213.609 109.344 213.249C109.229 212.889 109.194 212.509 109.239 212.135L115.454 147.482C115.544 146.68 115.921 145.939 116.517 145.395C117.113 144.852 117.886 144.544 118.693 144.528H169.877C170.255 144.52 170.629 144.594 170.976 144.744C171.322 144.893 171.633 145.116 171.886 145.396C172.139 145.676 172.329 146.007 172.444 146.367C172.558 146.727 172.593 147.107 172.548 147.482L166.333 212.135C166.243 212.936 165.865 213.677 165.269 214.221C164.674 214.764 163.901 215.073 163.094 215.089Z" fill="#FEBB94"/>
<path d="M150.892 179.423C156.664 173.922 157.292 165.211 152.295 159.968C147.297 154.725 138.566 154.934 132.794 160.435C127.022 165.937 126.394 174.647 131.391 179.891C136.389 185.134 145.119 184.925 150.892 179.423Z" stroke="#EF6A77" stroke-width="4.67868" stroke-miterlimit="10"/>
<path d="M155.604 169.929C154.874 177.529 148.12 183.69 140.52 183.69C132.92 183.69 127.351 177.529 128.082 169.929C128.813 162.329 135.566 156.168 143.166 156.168" stroke="white" stroke-width="4.67868" stroke-miterlimit="10" stroke-linecap="round"/>
<path d="M134.218 194.476H144.748" stroke="white" stroke-width="2.39491" stroke-miterlimit="10" stroke-linecap="round"/>
<path d="M133.072 206.402H143.602" stroke="white" stroke-width="2.39491" stroke-miterlimit="10" stroke-linecap="round"/>
<path opacity="0.4" d="M128.035 200.372H149.798" stroke="white" stroke-width="2.39491" stroke-miterlimit="10" stroke-linecap="round"/>
<path d="M221.399 261.332H107.31C106.952 261.338 106.597 261.269 106.269 261.127C105.94 260.985 105.646 260.774 105.406 260.508C105.166 260.243 104.986 259.929 104.878 259.588C104.77 259.247 104.736 258.887 104.779 258.531L108.184 223.116C108.269 222.356 108.627 221.653 109.191 221.138C109.756 220.623 110.489 220.331 111.253 220.315H225.342C225.699 220.308 226.054 220.378 226.383 220.52C226.711 220.662 227.005 220.873 227.245 221.139C227.485 221.404 227.665 221.718 227.774 222.059C227.882 222.4 227.915 222.76 227.873 223.116L224.468 258.531C224.383 259.291 224.025 259.994 223.46 260.509C222.896 261.024 222.163 261.316 221.399 261.332Z" fill="url(#paint3_linear_584_466)"/>
<path d="M115.255 253.12L116.864 236.377" stroke="white" stroke-width="4.67868" stroke-miterlimit="10" stroke-linecap="round"/>
<path d="M127.064 241.391L125.937 253.12" stroke="white" stroke-width="4.67868" stroke-miterlimit="10" stroke-linecap="round"/>
<path d="M137.361 245.397L136.618 253.12" stroke="white" stroke-width="4.67868" stroke-miterlimit="10" stroke-linecap="round"/>
<path d="M149.327 232.026L147.3 253.12" stroke="white" stroke-width="4.67868" stroke-miterlimit="10" stroke-linecap="round"/>
<path d="M158.724 245.397L157.981 253.12" stroke="white" stroke-width="4.67868" stroke-miterlimit="10" stroke-linecap="round"/>
<path d="M170.601 232.958L168.663 253.12" stroke="white" stroke-width="4.67868" stroke-miterlimit="10" stroke-linecap="round"/>
<path d="M180.149 244.749L179.344 253.12" stroke="white" stroke-width="4.67868" stroke-miterlimit="10" stroke-linecap="round"/>
<path d="M190.454 248.661L190.026 253.12" stroke="white" stroke-width="4.67868" stroke-miterlimit="10" stroke-linecap="round"/>
<path d="M202.316 236.377L200.707 253.12" stroke="white" stroke-width="4.67868" stroke-miterlimit="10" stroke-linecap="round"/>
<path d="M213.611 230.002L211.388 253.12" stroke="white" stroke-width="4.67868" stroke-miterlimit="10" stroke-linecap="round"/>
<path d="M118.212 125.859L124.623 135.903C124.913 136.356 125.011 136.906 124.898 137.431C124.784 137.957 124.467 138.416 124.016 138.709L122.98 139.383C121.245 140.51 119.16 140.969 117.113 140.675C115.065 140.38 113.194 139.352 111.847 137.782L103.339 127.859L118.212 125.859Z" fill="#FFCCB3"/>
<path d="M113.319 129.724C113.319 129.724 115.693 137.876 120.463 140.491C121.701 140.012 122.891 139.415 124.016 138.709L118.668 129.724" fill="#FCBA9F"/>
<path d="M3.62769 166.384L28.8125 154.315C31.1855 153.178 33.1919 151.398 34.6039 149.177L58.9335 110.905C60.448 108.522 62.6449 106.65 65.238 105.533L100.28 90.4365L92.7778 147.17L92.6457 149.265C92.6457 149.265 83.3775 173.27 60.6609 181.99L24.3415 204.205L3.62769 166.384Z" fill="#FFCCB3"/>
<path d="M31.0355 152.983C31.0355 152.983 42.9489 182.719 60.661 181.99L49.3523 188.907C49.3523 188.907 10.9685 181.787 25.3366 155.922L31.0355 152.983Z" fill="#FCBA9F"/>
<path d="M94.8558 100.936C94.8558 100.936 82.4661 108.444 83.1233 125.859L98.0021 120.299L94.8558 100.936Z" fill="#FCBA9F"/>
<path d="M125.98 125.859L132.392 135.903C132.681 136.356 132.779 136.906 132.666 137.431C132.552 137.957 132.235 138.416 131.784 138.709L130.748 139.383C129.013 140.51 126.928 140.969 124.881 140.675C122.833 140.38 120.962 139.352 119.615 137.782L111.107 127.859L125.98 125.859Z" fill="#FFCCB3"/>
<path d="M220.768 129.82L99.6687 129.712C99.174 129.725 98.6821 129.633 98.2263 129.441C97.77 129.249 97.3601 128.962 97.0235 128.6C96.6869 128.237 96.432 127.807 96.2751 127.337C96.1182 126.868 96.0634 126.37 96.1142 125.878L102.643 53.3835C102.761 52.3372 103.258 51.3707 104.04 50.6659C104.822 49.961 105.834 49.5664 106.887 49.5564L227.987 49.6645C228.481 49.6509 228.973 49.7433 229.43 49.935C229.885 50.1267 230.296 50.4137 230.632 50.7763C230.968 51.1393 231.223 51.57 231.38 52.0391C231.537 52.5085 231.592 53.006 231.542 53.4979L225.013 125.993C224.894 127.039 224.397 128.005 223.616 128.71C222.834 129.415 221.821 129.81 220.768 129.82Z" fill="#1C85E8"/>
<path d="M107.687 92.5645C107.687 92.5645 118.557 90.366 121.483 95.467C124.408 100.568 126.931 110.147 134.715 108.912C142.498 107.677 148.457 82.6326 156.109 82.8612C163.761 83.0897 161.063 99.4922 169.393 99.7211C177.722 99.95 176.24 90.5589 181.792 90.8207C188.525 91.138 186.015 110.598 194.796 110.827C203.576 111.056 205.009 85.1229 218.282 85.578" stroke="white" stroke-width="3.02781" stroke-miterlimit="10" stroke-linecap="round"/>
<path d="M113.869 61.698L135.175 61.7168" stroke="white" stroke-width="4.80247" stroke-miterlimit="10" stroke-linecap="round"/>
<path opacity="0.4" d="M112.99 71.4645L157.02 71.5037" stroke="white" stroke-width="4.80247" stroke-miterlimit="10" stroke-linecap="round"/>
<path d="M71.7651 129.46L87.2998 122.617L103.186 111.773C107.364 108.921 116.09 107.637 119.231 111.601C122.426 115.634 118.837 123.612 114.962 126.996L100.28 139.816L92.6454 149.265L71.7651 129.46Z" fill="#FFCCB3"/>
<path d="M103.339 115.891C103.339 115.891 105.436 123.978 110.873 125.377L116.641 120.505C117.225 120.07 117.715 119.52 118.081 118.889C118.446 118.258 118.679 117.559 118.766 116.835C118.852 116.111 118.79 115.377 118.584 114.678C118.377 113.979 118.031 113.329 117.565 112.768C116.751 111.788 115.616 111.129 114.362 110.909C113.107 110.69 111.815 110.923 110.717 111.567L103.339 115.891Z" stroke="#FF967C" stroke-width="1.20071" stroke-linecap="round"/>
<path d="M29.7695 153.315C29.7695 153.315 26.759 174.846 52.9576 187.174C52.9576 187.174 34.1377 204.438 26.8818 207.341C19.6263 210.243 -7.63492 180.579 2.06119 163.742C4.7804 159.02 29.7695 153.315 29.7695 153.315Z" fill="#1C85E8"/>
<path d="M129.036 130.647C129.036 130.647 118.825 130.855 115.271 132.715L112.705 129.724L128.447 129.724L129.036 130.647Z" fill="#FCBA9F"/>
<path d="M317.051 129.82H244.446C238.977 129.82 234.936 125.386 235.42 119.917L245.161 9.90263C245.645 4.43381 250.472 0 255.941 0H328.546C334.017 0 338.055 4.43381 337.571 9.90263L327.829 119.917C327.345 125.386 322.518 129.82 317.051 129.82Z" fill="#FEBB94"/>
<path d="M306.657 62.1202C318.155 51.1213 319.312 33.6746 309.246 23.152C299.179 12.6294 281.698 13.0153 270.202 24.0141C258.705 35.013 257.546 52.4597 267.613 62.9823C277.68 73.5053 295.161 73.1191 306.657 62.1202Z" fill="white"/>
<path d="M289.968 43.9235L308.194 60.5461C308.194 60.5461 312.34 56.0894 313.577 52.9044L289.968 43.9235Z" fill="url(#paint4_linear_584_466)"/>
<path d="M291.182 11.9923L288.592 41.2403C288.534 41.7731 288.634 42.311 288.878 42.7881C289.123 43.2647 289.502 43.6594 289.968 43.9235L314.697 57.6908C314.697 57.6908 329.382 16.7231 291.182 11.9923Z" fill="#1C85E8"/>
<path d="M252.474 90.8811H282.553" stroke="white" stroke-width="4.80283" stroke-miterlimit="10" stroke-linecap="round"/>
<path d="M250.273 115.749H280.351" stroke="white" stroke-width="4.80283" stroke-miterlimit="10" stroke-linecap="round"/>
<path opacity="0.4" d="M251.386 103.174H313.545" stroke="white" stroke-width="4.80283" stroke-miterlimit="10" stroke-linecap="round"/>
<path d="M227.76 210.866C227.76 210.866 237.456 208.28 242.616 213.837C242.616 213.837 251.891 212.153 255.662 217.312C255.662 217.312 263.885 217.789 266.266 221.143C268.247 221.416 270.119 222.209 271.694 223.441C273.268 224.673 274.488 226.301 275.229 228.157C277.477 233.457 275.57 264.095 273.335 275.074C272.776 277.82 272.968 280.666 273.889 283.312L279.574 299.649L240.24 316.092L230.902 291.735C230.902 291.735 219.535 273.468 217.911 270.22C216.287 266.973 219.039 240.024 213.496 223.189L227.76 210.866Z" fill="#FFCCB3"/>
<path d="M235.975 304.968L234.841 302.008C234.841 302.008 255.251 300.704 273.889 283.312L275.672 288.435C275.672 288.435 273.37 299.017 262.888 304.005C252.407 308.992 235.975 304.968 235.975 304.968Z" fill="#FCBA9F"/>
<path d="M235.975 304.968C235.975 304.968 260.681 307.218 275.672 288.435C275.672 288.435 281.207 291.337 289.706 312.582C292.316 319.107 248.727 342.34 241.679 332.682C241.679 332.682 235.595 319.812 235.975 304.968Z" fill="#5661AE"/>
<path d="M215.913 233.351C215.913 233.351 215.061 237.873 211.032 237.873C208.403 237.873 197.009 234.431 189.404 232.037C187.334 231.386 185.115 231.386 183.045 232.037C180.976 232.688 179.157 233.959 177.834 235.678L177.371 236.278C177.142 236.576 176.975 236.917 176.881 237.281C176.787 237.645 176.768 238.024 176.825 238.395C176.882 238.767 177.013 239.123 177.212 239.442C177.41 239.761 177.672 240.037 177.98 240.252C184.419 244.747 201.805 256.947 204.029 259.17C206.766 261.907 222.005 277.249 222.005 277.249L215.913 233.351Z" fill="#FFCCB3"/>
<path d="M214.988 228.822C214.988 228.822 223.224 239.969 222.005 242.409C220.786 244.849 208.015 237.389 208.015 237.389C208.015 237.389 218.32 240.039 214.988 228.822Z" fill="#FCBA9F"/>
<path d="M213.496 223.189L199.638 181.105C199.163 179.661 198.982 178.137 199.107 176.622C199.231 175.107 199.659 173.633 200.364 172.287C201.07 170.94 202.038 169.749 203.212 168.784C204.386 167.819 205.742 167.1 207.2 166.669C208.393 166.316 209.673 166.411 210.801 166.937C211.928 167.463 212.824 168.383 213.32 169.524L232.762 214.213L213.496 223.189Z" fill="#FFCCB3"/>
<path d="M207.486 204.939C207.879 205.584 208.401 206.141 209.019 206.575C209.637 207.009 210.338 207.311 211.078 207.461" stroke="#FF967C" stroke-width="1.20071" stroke-linecap="round"/>
<path d="M212.472 183.395C214.159 182.648 216.018 181.603 216.819 180.385L211.658 168.132C211.548 167.868 211.383 167.631 211.173 167.435C210.964 167.24 210.716 167.092 210.445 167C210.174 166.908 209.886 166.874 209.601 166.902C209.316 166.93 209.041 167.017 208.793 167.159C206.956 168.219 204.532 170.131 204.438 172.877L207.928 181.562C208.1 181.986 208.355 182.371 208.678 182.695C209.002 183.018 209.387 183.273 209.811 183.444C210.235 183.615 210.689 183.699 211.147 183.691C211.604 183.682 212.055 183.581 212.472 183.395Z" stroke="#FF967C" stroke-width="1.20071" stroke-linecap="round"/>
<path d="M231.198 210.619L235.975 221.143" stroke="#FF967C" stroke-width="1.20071" stroke-linecap="round"/>
<path d="M242.807 214.052C245.235 217.533 246.536 221.675 246.535 225.919" stroke="#FF967C" stroke-width="1.20071" stroke-linecap="round"/>
<path d="M255.89 217.509C255.89 217.509 258.295 223.025 258.494 227.387" stroke="#FF967C" stroke-width="1.20071" stroke-linecap="round"/>
<path d="M266.603 221.47C267.55 223.797 267.918 226.321 267.673 228.822" stroke="#FF967C" stroke-width="1.20071" stroke-linecap="round"/>
<path d="M188.156 245.397C188.156 245.397 191.002 241.783 190.026 239.97C189.049 238.158 184.707 235.594 182.198 235.873C181 236.053 179.845 236.447 178.787 237.035C178.594 237.136 178.432 237.285 178.315 237.468C178.198 237.651 178.131 237.861 178.12 238.078C178.109 238.295 178.155 238.511 178.254 238.705C178.353 238.898 178.5 239.063 178.682 239.182L188.156 245.397Z" stroke="#FF967C" stroke-width="1.20071" stroke-linecap="round"/>
<path d="M139.219 289.464H52.5217C52.1639 289.471 51.8089 289.401 51.4803 289.259C51.1517 289.117 50.8575 288.906 50.6178 288.641C50.3777 288.375 50.1975 288.061 50.0895 287.72C49.981 287.379 49.9474 287.019 49.9906 286.664L53.395 251.248C53.4799 250.488 53.8381 249.786 54.4028 249.27C54.9676 248.755 55.7 248.463 56.4644 248.448H143.162C143.52 248.441 143.875 248.511 144.203 248.653C144.532 248.795 144.826 249.005 145.066 249.271C145.306 249.537 145.486 249.85 145.594 250.191C145.702 250.533 145.736 250.893 145.693 251.248L142.289 286.664C142.203 287.423 141.845 288.126 141.28 288.641C140.716 289.156 139.983 289.449 139.219 289.464Z" fill="#FEBB94"/>
<path d="M60.6609 257.684H114.166" stroke="#EF6A77" stroke-width="4.67868" stroke-miterlimit="10" stroke-linecap="round"/>
<path d="M60.6609 257.684H97.8416" stroke="white" stroke-width="4.67868" stroke-miterlimit="10" stroke-linecap="round"/>
<path d="M59.8604 268.956H113.365" stroke="#EF6A77" stroke-width="4.67868" stroke-miterlimit="10" stroke-linecap="round"/>
<path d="M59.8604 268.956H82.0895" stroke="white" stroke-width="4.67868" stroke-miterlimit="10" stroke-linecap="round"/>
<path d="M58.111 280.228H111.616" stroke="#EF6A77" stroke-width="4.67868" stroke-miterlimit="10" stroke-linecap="round"/>
<path d="M58.111 280.228H71.705" stroke="white" stroke-width="4.67868" stroke-miterlimit="10" stroke-linecap="round"/>
<path d="M133.105 260.88C134.871 260.88 136.302 259.449 136.302 257.684C136.302 255.918 134.871 254.487 133.105 254.487C131.34 254.487 129.909 255.918 129.909 257.684C129.909 259.449 131.34 260.88 133.105 260.88Z" fill="white"/>
<path d="M132.069 271.66C133.834 271.66 135.266 270.228 135.266 268.463C135.266 266.697 133.834 265.266 132.069 265.266C130.303 265.266 128.872 266.697 128.872 268.463C128.872 270.228 130.303 271.66 132.069 271.66Z" fill="white"/>
<path d="M130.911 283.425C132.677 283.425 134.109 281.994 134.109 280.228C134.109 278.463 132.677 277.031 130.911 277.031C129.146 277.031 127.714 278.463 127.714 280.228C127.714 281.994 129.146 283.425 130.911 283.425Z" fill="white"/>
<defs>
<linearGradient id="paint0_linear_584_466" x1="155.773" y1="-40.2891" x2="269.375" y2="529" gradientUnits="userSpaceOnUse">
<stop stop-color="white"/>
<stop offset="1" stop-color="#94B9FF"/>
</linearGradient>
<linearGradient id="paint1_linear_584_466" x1="169.189" y1="56.5217" x2="180.204" y2="227.989" gradientUnits="userSpaceOnUse">
<stop stop-color="white"/>
<stop offset="1" stop-color="#94B9FF"/>
</linearGradient>
<linearGradient id="paint2_linear_584_466" x1="201.912" y1="144.359" x2="219.929" y2="293.55" gradientUnits="userSpaceOnUse">
<stop stop-color="white"/>
<stop offset="1" stop-color="#94B9FF"/>
</linearGradient>
<linearGradient id="paint3_linear_584_466" x1="163.261" y1="220.217" x2="166.434" y2="308.09" gradientUnits="userSpaceOnUse">
<stop stop-color="white"/>
<stop offset="1" stop-color="#94B9FF"/>
</linearGradient>
<linearGradient id="paint4_linear_584_466" x1="301.184" y1="43.8838" x2="303.891" y2="79.3351" gradientUnits="userSpaceOnUse">
<stop stop-color="white"/>
<stop offset="1" stop-color="#94B9FF"/>
</linearGradient>
</defs>
</svg>
