<svg width="20" height="20" viewBox="0 0 20 20" fill="none" xmlns="http://www.w3.org/2000/svg">
<path d="M13.4917 1.66663H6.50841C3.47508 1.66663 1.66675 3.47496 1.66675 6.50829V13.4833C1.66675 16.525 3.47508 18.3333 6.50841 18.3333H13.4834C16.5167 18.3333 18.3251 16.525 18.3251 13.4916V6.50829C18.3334 3.47496 16.5251 1.66663 13.4917 1.66663ZM13.3334 10.625H10.6251V13.3333C10.6251 13.675 10.3417 13.9583 10.0001 13.9583C9.65841 13.9583 9.37508 13.675 9.37508 13.3333V10.625H6.66675C6.32508 10.625 6.04175 10.3416 6.04175 9.99996C6.04175 9.65829 6.32508 9.37496 6.66675 9.37496H9.37508V6.66663C9.37508 6.32496 9.65841 6.04163 10.0001 6.04163C10.3417 6.04163 10.6251 6.32496 10.6251 6.66663V9.37496H13.3334C13.6751 9.37496 13.9584 9.65829 13.9584 9.99996C13.9584 10.3416 13.6751 10.625 13.3334 10.625Z" fill="white"/>
</svg>
