<svg width="21" height="20" viewBox="0 0 21 20" fill="none" xmlns="http://www.w3.org/2000/svg">
<path opacity="0.4" d="M10.24 18.3333C14.8424 18.3333 18.5733 14.6024 18.5733 9.99999C18.5733 5.39762 14.8424 1.66666 10.24 1.66666C5.63764 1.66666 1.90668 5.39762 1.90668 9.99999C1.90668 14.6024 5.63764 18.3333 10.24 18.3333Z" fill="#E24036"/>
<path d="M11.1233 9.99999L13.04 8.08332C13.2816 7.84165 13.2816 7.44165 13.04 7.19999C12.7983 6.95832 12.3983 6.95832 12.1566 7.19999L10.24 9.11665L8.32331 7.19999C8.08164 6.95832 7.68164 6.95832 7.43998 7.19999C7.19831 7.44165 7.19831 7.84165 7.43998 8.08332L9.35664 9.99999L7.43998 11.9167C7.19831 12.1583 7.19831 12.5583 7.43998 12.8C7.56498 12.925 7.72331 12.9833 7.88164 12.9833C8.03998 12.9833 8.19831 12.925 8.32331 12.8L10.24 10.8833L12.1566 12.8C12.2816 12.925 12.44 12.9833 12.5983 12.9833C12.7566 12.9833 12.915 12.925 13.04 12.8C13.2816 12.5583 13.2816 12.1583 13.04 11.9167L11.1233 9.99999Z" fill="#E24036"/>
</svg>
