<svg width="16" height="16" viewBox="0 0 16 16" fill="none" xmlns="http://www.w3.org/2000/svg">
<path d="M13.7333 2.73336V4.20002C13.7333 4.73336 13.4 5.40002 13.0667 5.73336L10.2 8.26669C9.8 8.60002 9.53334 9.26669 9.53334 9.80002V12.6667C9.53334 13.0667 9.26667 13.6 8.93334 13.8L8.00001 14.4C7.13334 14.9334 5.93334 14.3334 5.93334 13.2667V9.73336C5.93334 9.26669 5.66667 8.66669 5.40001 8.33336L5.08667 8.00669C4.88001 7.78669 4.84001 7.45336 5.00667 7.19336L8.42 1.71336C8.54 1.52002 8.75334 1.40002 8.98667 1.40002H12.4C13.1333 1.40002 13.7333 2.00002 13.7333 2.73336Z" fill="#163172"/>
<path d="M6.89994 2.42002L4.53327 6.21336C4.3066 6.58002 3.7866 6.63336 3.4866 6.32002L2.8666 5.66669C2.53327 5.33336 2.2666 4.73336 2.2666 4.33336V2.80002C2.2666 2.00002 2.8666 1.40002 3.59993 1.40002H6.33327C6.85327 1.40002 7.17327 1.97336 6.89994 2.42002Z" fill="#163172"/>
</svg>
