<svg width="58" height="31" viewBox="0 0 58 31" fill="none" xmlns="http://www.w3.org/2000/svg">
<g filter="url(#filter0_i_309_521)">
<rect y="3" width="53.3333" height="24" rx="12" fill="#D6E4F0"/>
</g>
<g filter="url(#filter1_d_309_521)">
<circle cx="40.7333" cy="14.6667" r="9" fill="url(#paint0_linear_309_521)"/>
<circle cx="40.7333" cy="14.6667" r="7.45714" fill="url(#paint1_linear_309_521)"/>
<circle cx="40.7333" cy="14.6667" r="9" fill="#FF9255"/>
<circle cx="40.7333" cy="14.6667" r="7.45714" fill="url(#paint2_linear_309_521)"/>
<mask id="mask0_309_521" style="mask-type:alpha" maskUnits="userSpaceOnUse" x="31" y="5" width="19" height="19">
<circle cx="40.7333" cy="14.6667" r="9" fill="url(#paint3_linear_309_521)"/>
</mask>
<g mask="url(#mask0_309_521)">
<path d="M42.6619 15.4447C47.4962 9.7876 52.3048 9.65903 54.1048 10.3019L57.0619 13.1305L54.4905 25.3447L35.8476 31.1305L25.4333 26.3733L24.2762 15.059C28.3905 17.5447 37.8276 21.1019 42.6619 15.4447Z" fill="url(#paint4_linear_309_521)"/>
<path d="M39.9619 14.6622C29.3685 8.23809 26.2477 10.1911 24.6435 11.2302L22.4149 14.6622L27.7224 25.9596L47.1956 27.3097L56.2392 20.2882L54.7673 9.01058C51.3338 12.3746 46.7067 18.7524 39.9619 14.6622Z" fill="url(#paint5_linear_309_521)"/>
</g>
</g>
<defs>
<filter id="filter0_i_309_521" x="0" y="3" width="53.3333" height="30" filterUnits="userSpaceOnUse" color-interpolation-filters="sRGB">
<feFlood flood-opacity="0" result="BackgroundImageFix"/>
<feBlend mode="normal" in="SourceGraphic" in2="BackgroundImageFix" result="shape"/>
<feColorMatrix in="SourceAlpha" type="matrix" values="0 0 0 0 0 0 0 0 0 0 0 0 0 0 0 0 0 0 127 0" result="hardAlpha"/>
<feMorphology radius="3" operator="erode" in="SourceAlpha" result="effect1_innerShadow_309_521"/>
<feOffset dy="6"/>
<feGaussianBlur stdDeviation="4"/>
<feComposite in2="hardAlpha" operator="arithmetic" k2="-1" k3="1"/>
<feColorMatrix type="matrix" values="0 0 0 0 0 0 0 0 0 0 0 0 0 0 0 0 0 0 0.1 0"/>
<feBlend mode="normal" in2="shape" result="effect1_innerShadow_309_521"/>
</filter>
<filter id="filter1_d_309_521" x="27.7333" y="0.666666" width="30" height="30" filterUnits="userSpaceOnUse" color-interpolation-filters="sRGB">
<feFlood flood-opacity="0" result="BackgroundImageFix"/>
<feColorMatrix in="SourceAlpha" type="matrix" values="0 0 0 0 0 0 0 0 0 0 0 0 0 0 0 0 0 0 127 0" result="hardAlpha"/>
<feOffset dx="2" dy="1"/>
<feGaussianBlur stdDeviation="3"/>
<feColorMatrix type="matrix" values="0 0 0 0 0 0 0 0 0 0 0 0 0 0 0 0 0 0 0.25 0"/>
<feBlend mode="normal" in2="BackgroundImageFix" result="effect1_dropShadow_309_521"/>
<feBlend mode="normal" in="SourceGraphic" in2="effect1_dropShadow_309_521" result="shape"/>
</filter>
<linearGradient id="paint0_linear_309_521" x1="40.7333" y1="5.66667" x2="40.7333" y2="23.6667" gradientUnits="userSpaceOnUse">
<stop stop-color="#FFC123"/>
<stop offset="1" stop-color="#F8832E"/>
</linearGradient>
<linearGradient id="paint1_linear_309_521" x1="40.7333" y1="7.20952" x2="40.7333" y2="22.1238" gradientUnits="userSpaceOnUse">
<stop stop-color="#FFBF24"/>
<stop offset="1" stop-color="#F4924B"/>
</linearGradient>
<linearGradient id="paint2_linear_309_521" x1="40.7333" y1="7.20952" x2="40.7333" y2="22.1238" gradientUnits="userSpaceOnUse">
<stop stop-color="#FFBF24"/>
<stop offset="1" stop-color="#F4924B"/>
</linearGradient>
<linearGradient id="paint3_linear_309_521" x1="40.7333" y1="5.66667" x2="40.7333" y2="23.6667" gradientUnits="userSpaceOnUse">
<stop stop-color="#FFC123"/>
<stop offset="1" stop-color="#F8832E"/>
</linearGradient>
<linearGradient id="paint4_linear_309_521" x1="40.669" y1="10.0381" x2="40.669" y2="31.1305" gradientUnits="userSpaceOnUse">
<stop stop-color="#FF9D55" stop-opacity="0.6"/>
<stop offset="1" stop-color="#FD8A37" stop-opacity="0"/>
</linearGradient>
<linearGradient id="paint5_linear_309_521" x1="37.6596" y1="7.88814" x2="42.5031" y2="28.4169" gradientUnits="userSpaceOnUse">
<stop stop-color="#FFBD3E" stop-opacity="0.49"/>
<stop offset="1" stop-color="white" stop-opacity="0"/>
</linearGradient>
</defs>
</svg>
