<svg width="20" height="20" viewBox="0 0 20 20" fill="none" xmlns="http://www.w3.org/2000/svg">
<path opacity="0.4" d="M10 18.3333C14.6024 18.3333 18.3334 14.6024 18.3334 9.99999C18.3334 5.39762 14.6024 1.66666 10 1.66666C5.39765 1.66666 1.66669 5.39762 1.66669 9.99999C1.66669 14.6024 5.39765 18.3333 10 18.3333Z" fill="#1E56A0"/>
<path d="M10 10.8333C9.53335 10.8333 9.16669 10.4583 9.16669 9.99999C9.16669 9.54166 9.54169 9.16666 10 9.16666C10.4584 9.16666 10.8334 9.54166 10.8334 9.99999C10.8334 10.4583 10.4667 10.8333 10 10.8333Z" fill="#1E56A0"/>
<path d="M13.3333 10.8333C12.8667 10.8333 12.5 10.4583 12.5 9.99999C12.5 9.54166 12.875 9.16666 13.3333 9.16666C13.7917 9.16666 14.1667 9.54166 14.1667 9.99999C14.1667 10.4583 13.8 10.8333 13.3333 10.8333Z" fill="#1E56A0"/>
<path d="M6.66665 10.8333C6.19998 10.8333 5.83331 10.4583 5.83331 9.99999C5.83331 9.54166 6.20831 9.16666 6.66665 9.16666C7.12498 9.16666 7.49998 9.54166 7.49998 9.99999C7.49998 10.4583 7.13331 10.8333 6.66665 10.8333Z" fill="#1E56A0"/>
</svg>
