<svg width="90" height="56" viewBox="0 0 90 56" fill="none" xmlns="http://www.w3.org/2000/svg">
<path d="M48.59 1.75C45.62 1.75 43.21 4.16 43.21 7.13C43.21 10.1 45.62 12.51 48.59 12.51C51.56 12.51 53.97 10.1 53.97 7.13C53.97 4.16 51.56 1.75 48.59 1.75Z" fill="#979797"/>
<path opacity="0.4" d="M39.36 13.03C37.53 13.03 36.03 14.52 36.03 16.36C36.03 18.2 37.52 19.69 39.36 19.69C41.19 19.69 42.69 18.2 42.69 16.36C42.69 14.52 41.19 13.03 39.36 13.03Z" fill="#979797"/>
<path opacity="0.4" d="M49.62 16.62C48.07 16.62 46.81 17.88 46.81 19.43C46.81 20.98 48.07 22.24 49.62 22.24C51.17 22.24 52.43 20.98 52.43 19.43C52.43 17.88 51.17 16.62 49.62 16.62Z" fill="#979797"/>
<path d="M5.56676 43.976C5.78142 44.2187 5.93542 44.4613 6.02876 44.704C6.13142 44.9467 6.18276 45.18 6.18276 45.404C6.18276 45.8613 6.01942 46.244 5.69276 46.552C5.36609 46.8507 4.90409 47 4.30676 47H0.750758L0.680758 46.132H4.19476C4.52142 46.132 4.77809 46.0527 4.96476 45.894C5.15142 45.7353 5.24476 45.5347 5.24476 45.292C5.24476 45.1707 5.21209 45.04 5.14676 44.9C5.09076 44.76 5.00676 44.6247 4.89476 44.494L2.51476 41.82L3.15876 41.218L5.56676 43.976ZM8.79529 46.79C8.79529 47.2847 8.71596 47.7327 8.55729 48.134C8.39862 48.5447 8.18396 48.89 7.91329 49.17C7.64262 49.4593 7.32062 49.6833 6.94729 49.842C6.58329 50.0007 6.18662 50.08 5.75729 50.08H5.00129L4.93129 49.212H5.54729C5.97662 49.212 6.34529 49.142 6.65329 49.002C6.95196 48.8713 7.19929 48.694 7.39529 48.47C7.59129 48.246 7.73596 47.9847 7.82929 47.686C7.92262 47.3967 7.96929 47.098 7.96929 46.79V43.346H8.79529V46.79ZM10.2166 39.23H11.0426V47H10.2166V39.23ZM15.0592 46.132C15.2459 46.132 15.4045 46.1087 15.5352 46.062C15.6659 46.0153 15.7685 45.9547 15.8432 45.88C15.9272 45.8053 15.9879 45.726 16.0252 45.642C16.0625 45.558 16.0812 45.4787 16.0812 45.404C16.0812 45.32 16.0625 45.208 16.0252 45.068C15.9972 44.9187 15.9365 44.704 15.8432 44.424C15.7499 44.1347 15.6192 43.7613 15.4512 43.304C15.2832 42.8373 15.0685 42.24 14.8072 41.512L15.6052 41.176L16.9492 45.082C17.0799 45.4553 17.2339 45.726 17.4112 45.894C17.5885 46.0527 17.8405 46.132 18.1672 46.132H18.3492C18.5359 46.132 18.6292 46.272 18.6292 46.552C18.6292 46.8507 18.5359 47 18.3492 47H18.1672C17.8872 47 17.6212 46.9487 17.3692 46.846C17.1172 46.734 16.8839 46.5007 16.6692 46.146C16.4919 46.4913 16.2679 46.72 15.9972 46.832C15.7359 46.944 15.4465 47 15.1292 47H12.3992L12.3292 46.132H15.0592ZM19.4947 46.132C19.8213 46.132 20.0827 46.0433 20.2787 45.866C20.484 45.6793 20.5867 45.432 20.5867 45.124V43.346H21.4127V45.124C21.4127 45.7213 21.2447 46.1833 20.9087 46.51C20.5727 46.8367 20.12 47 19.5507 47H18.3467C18.16 47 18.0667 46.86 18.0667 46.58C18.0667 46.2813 18.16 46.132 18.3467 46.132H19.4947ZM21.0767 41.736H20.0127V40.812H21.0767V41.736ZM29.3832 43.976C29.5978 44.2187 29.7518 44.4613 29.8452 44.704C29.9478 44.9467 29.9992 45.18 29.9992 45.404C29.9992 45.8613 29.8358 46.244 29.5092 46.552C29.1825 46.8507 28.7205 47 28.1232 47H24.5672L24.4972 46.132H28.0112C28.3378 46.132 28.5945 46.0527 28.7812 45.894C28.9678 45.7353 29.0612 45.5347 29.0612 45.292C29.0612 45.1707 29.0285 45.04 28.9632 44.9C28.9072 44.76 28.8232 44.6247 28.7112 44.494L26.3312 41.82L26.9752 41.218L29.3832 43.976ZM32.4997 49.212C32.873 49.212 33.1997 49.1513 33.4797 49.03C33.7597 48.918 33.9977 48.7593 34.1937 48.554C34.3897 48.358 34.539 48.1247 34.6417 47.854C34.7444 47.5833 34.805 47.2987 34.8237 47H33.5497C33.111 47 32.7517 46.9533 32.4717 46.86C32.1917 46.7667 31.9677 46.6313 31.7997 46.454C31.641 46.2767 31.529 46.062 31.4637 45.81C31.4077 45.558 31.3797 45.2733 31.3797 44.956C31.3797 44.6387 31.4264 44.3353 31.5197 44.046C31.613 43.7567 31.7484 43.5047 31.9257 43.29C32.103 43.066 32.3224 42.8887 32.5837 42.758C32.8544 42.6273 33.167 42.562 33.5217 42.562C33.8017 42.562 34.0677 42.6087 34.3197 42.702C34.581 42.7953 34.8097 42.94 35.0057 43.136C35.2017 43.332 35.3557 43.5887 35.4677 43.906C35.5797 44.2233 35.6357 44.606 35.6357 45.054V46.132H36.8537C37.0404 46.132 37.1337 46.272 37.1337 46.552C37.1337 46.8507 37.0404 47 36.8537 47H35.6217C35.603 47.4107 35.519 47.8027 35.3697 48.176C35.2204 48.5493 35.015 48.876 34.7537 49.156C34.4924 49.436 34.175 49.66 33.8017 49.828C33.4377 49.996 33.027 50.08 32.5697 50.08H31.2257L31.1557 49.212H32.4997ZM32.1777 44.914C32.1777 45.1287 32.201 45.3153 32.2477 45.474C32.2944 45.6233 32.3737 45.7493 32.4857 45.852C32.5977 45.9453 32.747 46.0153 32.9337 46.062C33.1297 46.1087 33.377 46.132 33.6757 46.132H34.8377V45.166C34.8377 44.5407 34.7164 44.0927 34.4737 43.822C34.231 43.542 33.8904 43.402 33.4517 43.402C33.0504 43.402 32.7377 43.542 32.5137 43.822C32.2897 44.0927 32.1777 44.4567 32.1777 44.914ZM40.5404 46.258C40.3257 46.3887 40.1157 46.5007 39.9104 46.594C39.7051 46.6873 39.4811 46.7667 39.2384 46.832C39.0051 46.888 38.7437 46.93 38.4544 46.958C38.1744 46.986 37.8477 47 37.4744 47H36.8584C36.6717 47 36.5784 46.86 36.5784 46.58C36.5784 46.2813 36.6717 46.132 36.8584 46.132H37.5024C37.8291 46.132 38.1184 46.1227 38.3704 46.104C38.6224 46.076 38.8557 46.0387 39.0704 45.992C39.2851 45.9453 39.4857 45.88 39.6724 45.796C39.8591 45.712 40.0504 45.614 40.2464 45.502L42.4024 44.256C42.3277 44.0787 42.2531 43.92 42.1784 43.78C42.1037 43.6307 42.0057 43.5047 41.8844 43.402C41.7724 43.2993 41.6324 43.22 41.4644 43.164C41.2964 43.108 41.0864 43.08 40.8344 43.08H37.9924L38.0624 42.212H40.9464C41.1704 42.212 41.3944 42.24 41.6184 42.296C41.8517 42.3427 42.0711 42.45 42.2764 42.618C42.4911 42.7767 42.6871 43.0147 42.8644 43.332C43.0511 43.6493 43.2051 44.074 43.3264 44.606L40.5404 46.258ZM40.4984 49.408H39.4344V48.484H40.4984V49.408ZM45.8024 49.212C46.1758 49.212 46.5024 49.1513 46.7824 49.03C47.0624 48.918 47.3004 48.7593 47.4964 48.554C47.6924 48.358 47.8418 48.1247 47.9444 47.854C48.0471 47.5833 48.1078 47.2987 48.1264 47H46.8524C46.4138 47 46.0544 46.9533 45.7744 46.86C45.4944 46.7667 45.2704 46.6313 45.1024 46.454C44.9438 46.2767 44.8318 46.062 44.7664 45.81C44.7104 45.558 44.6824 45.2733 44.6824 44.956C44.6824 44.6387 44.7291 44.3353 44.8224 44.046C44.9158 43.7567 45.0511 43.5047 45.2284 43.29C45.4058 43.066 45.6251 42.8887 45.8864 42.758C46.1571 42.6273 46.4698 42.562 46.8244 42.562C47.1044 42.562 47.3704 42.6087 47.6224 42.702C47.8838 42.7953 48.1124 42.94 48.3084 43.136C48.5044 43.332 48.6584 43.5887 48.7704 43.906C48.8824 44.2233 48.9384 44.606 48.9384 45.054V46.79C48.9384 47.2287 48.8684 47.644 48.7284 48.036C48.5884 48.4373 48.3878 48.7873 48.1264 49.086C47.8651 49.394 47.5431 49.6367 47.1604 49.814C46.7778 49.9913 46.3484 50.08 45.8724 50.08H44.5284L44.4584 49.212H45.8024ZM45.4804 44.914C45.4804 45.1287 45.5038 45.3153 45.5504 45.474C45.5971 45.6233 45.6764 45.7493 45.7884 45.852C45.9004 45.9453 46.0498 46.0153 46.2364 46.062C46.4324 46.1087 46.6798 46.132 46.9784 46.132H48.1404V45.166C48.1404 44.5407 48.0191 44.0927 47.7764 43.822C47.5338 43.542 47.1931 43.402 46.7544 43.402C46.3531 43.402 46.0404 43.542 45.8164 43.822C45.5924 44.0927 45.4804 44.4567 45.4804 44.914ZM56.3303 49.212C56.7597 49.212 57.1237 49.17 57.4223 49.086C57.721 49.002 57.959 48.89 58.1363 48.75C58.323 48.61 58.4583 48.4513 58.5423 48.274C58.6263 48.106 58.6683 47.9287 58.6683 47.742C58.6683 47.5273 58.617 47.35 58.5143 47.21C58.4117 47.07 58.2343 47 57.9823 47H55.8403L55.9103 46.132H60.4323C60.619 46.132 60.7123 46.272 60.7123 46.552C60.7123 46.8507 60.619 47 60.4323 47H59.1863C59.289 47.0933 59.359 47.2053 59.3963 47.336C59.443 47.476 59.4663 47.63 59.4663 47.798C59.4663 48.022 59.415 48.2647 59.3123 48.526C59.219 48.7967 59.0557 49.044 58.8223 49.268C58.589 49.5013 58.2763 49.6927 57.8843 49.842C57.5017 50.0007 57.0257 50.08 56.4563 50.08H55.1823C54.2303 50.08 53.4883 49.786 52.9563 49.198C52.4337 48.61 52.1723 47.8073 52.1723 46.79V44.564H52.9983V46.762C52.9983 47.4993 53.1803 48.092 53.5443 48.54C53.9177 48.988 54.5057 49.212 55.3083 49.212H56.3303ZM60.8767 46.132C61.2314 46.132 61.5114 46.0433 61.7167 45.866C61.922 45.6793 62.0247 45.432 62.0247 45.124V43.346H62.8367V45.124C62.8367 45.3107 62.8694 45.4693 62.9347 45.6C63 45.7213 63.084 45.824 63.1867 45.908C63.2987 45.9827 63.42 46.0387 63.5507 46.076C63.6814 46.1133 63.8167 46.132 63.9567 46.132C64.3487 46.132 64.6474 46.0433 64.8527 45.866C65.0674 45.6793 65.1747 45.432 65.1747 45.124V43.346H65.9867V45.124C65.9867 45.4973 66.0894 45.7587 66.2947 45.908C66.5094 46.0573 66.752 46.132 67.0227 46.132C67.3587 46.132 67.62 46.0433 67.8067 45.866C67.9934 45.6793 68.0867 45.432 68.0867 45.124V43.346H68.9127V45.124C68.9127 45.3107 68.9407 45.4693 68.9967 45.6C69.062 45.7213 69.146 45.824 69.2487 45.908C69.3514 45.9827 69.4634 46.0387 69.5847 46.076C69.706 46.1133 69.832 46.132 69.9627 46.132H70.2007C70.3874 46.132 70.4807 46.272 70.4807 46.552C70.4807 46.8507 70.3874 47 70.2007 47H69.9627C69.6547 47 69.3654 46.944 69.0947 46.832C68.8334 46.72 68.6234 46.5007 68.4647 46.174C68.278 46.5007 68.054 46.72 67.7927 46.832C67.5314 46.944 67.2747 47 67.0227 47C66.7147 47 66.43 46.944 66.1687 46.832C65.9167 46.72 65.7114 46.5007 65.5527 46.174C65.366 46.5007 65.128 46.72 64.8387 46.832C64.5587 46.944 64.2647 47 63.9567 47C63.6207 47 63.3174 46.944 63.0467 46.832C62.776 46.72 62.5614 46.5007 62.4027 46.174C62.216 46.5007 61.9827 46.72 61.7027 46.832C61.4227 46.944 61.1334 47 60.8347 47H60.4287C60.242 47 60.1487 46.86 60.1487 46.58C60.1487 46.2813 60.242 46.132 60.4287 46.132H60.8767ZM66.0987 40.21H65.0907V39.314H66.0987V40.21ZM66.9107 41.736H65.8887V40.84H66.9107V41.736ZM65.3007 41.736H64.2787V40.84H65.3007V41.736ZM71.1701 46.132C71.5248 46.132 71.7954 46.0433 71.9821 45.866C72.1688 45.6793 72.2621 45.432 72.2621 45.124V43.346H73.0881V45.124C73.0881 45.3107 73.1208 45.4693 73.1861 45.6C73.2514 45.7213 73.3354 45.824 73.4381 45.908C73.5408 45.9827 73.6574 46.0387 73.7881 46.076C73.9188 46.1133 74.0494 46.132 74.1801 46.132H74.5581C74.7448 46.132 74.8381 46.272 74.8381 46.552C74.8381 46.8507 74.7448 47 74.5581 47H74.1521C73.8441 47 73.5548 46.944 73.2841 46.832C73.0228 46.72 72.8081 46.5007 72.6401 46.174C72.4534 46.5007 72.2294 46.72 71.9681 46.832C71.7161 46.944 71.4501 47 71.1701 47H70.2041C70.0174 47 69.9241 46.86 69.9241 46.58C69.9241 46.2813 70.0174 46.132 70.2041 46.132H71.1701ZM73.1021 41.736H72.0381V40.812H73.1021V41.736ZM77.9118 46.132C78.2944 46.132 78.5558 46.0527 78.6958 45.894C78.8451 45.7353 78.9198 45.544 78.9198 45.32C78.9198 45.1707 78.8918 45.0073 78.8358 44.83C78.7798 44.6527 78.6398 44.4567 78.4158 44.242L75.5878 41.414V40.504L79.8858 38.838L80.0538 39.664L76.3998 41.078L78.7798 43.458C78.9851 43.6727 79.1531 43.864 79.2838 44.032C79.4238 44.2 79.5264 44.3633 79.5918 44.522C79.6664 44.6713 79.7178 44.8207 79.7458 44.97C79.7738 45.11 79.7878 45.264 79.7878 45.432C79.7878 45.9733 79.6198 46.37 79.2838 46.622C78.9571 46.874 78.5278 47 77.9958 47H74.5518C74.3651 47 74.2718 46.86 74.2718 46.58C74.2718 46.2813 74.3651 46.132 74.5518 46.132H77.9118ZM81.3377 39.23H82.1637V47H81.3377V39.23ZM84.8923 46.79C84.8923 47.2847 84.813 47.7327 84.6543 48.134C84.505 48.5447 84.295 48.89 84.0243 49.17C83.7536 49.4593 83.4363 49.6833 83.0723 49.842C82.7083 50.0007 82.3116 50.08 81.8823 50.08H81.1263L81.0563 49.212H81.6723C82.1016 49.212 82.4703 49.142 82.7783 49.002C83.077 48.8713 83.3243 48.694 83.5203 48.47C83.7163 48.246 83.861 47.9847 83.9543 47.686C84.0476 47.3967 84.0943 47.098 84.0943 46.79V43.346H84.9203V45.166C84.9203 45.4553 85.0183 45.6887 85.2143 45.866C85.4103 46.0433 85.667 46.132 85.9843 46.132H86.1243C86.311 46.132 86.4043 46.272 86.4043 46.552C86.4043 46.8507 86.311 47 86.1243 47H85.9843C85.779 47 85.5783 46.9627 85.3823 46.888C85.1863 46.8133 85.023 46.6827 84.8923 46.496V46.79ZM87.2662 46.132C87.5928 46.132 87.8542 46.0433 88.0502 45.866C88.2555 45.6793 88.3582 45.432 88.3582 45.124V43.346H89.1842V45.124C89.1842 45.7213 89.0162 46.1833 88.6802 46.51C88.3442 46.8367 87.8915 47 87.3222 47H86.1182C85.9315 47 85.8382 46.86 85.8382 46.58C85.8382 46.2813 85.9315 46.132 86.1182 46.132H87.2662ZM89.3102 41.736H88.2882V40.84H89.3102V41.736ZM87.7002 41.736H86.6782V40.84H87.7002V41.736Z" fill="#979797"/>
</svg>
