<svg width="28" height="28" viewBox="0 0 28 28" fill="none" xmlns="http://www.w3.org/2000/svg">
<g clip-path="url(#clip0_408_265)">
<path d="M14.1197 27.56C21.5424 27.56 27.5597 21.5427 27.5597 14.12C27.5597 6.69729 21.5424 0.679993 14.1197 0.679993C6.69698 0.679993 0.679688 6.69729 0.679688 14.12C0.679688 21.5427 6.69698 27.56 14.1197 27.56Z" fill="#26A17B"/>
<path fill-rule="evenodd" clip-rule="evenodd" d="M15.7342 15.2817V15.28C15.6418 15.2868 15.1655 15.3153 14.1029 15.3153C13.2545 15.3153 12.6573 15.2901 12.4473 15.28V15.2826C9.18138 15.1389 6.7437 14.5702 6.7437 13.8898C6.7437 13.2103 9.18138 12.6416 12.4473 12.4954V14.7164C12.6607 14.7315 13.2722 14.7676 14.1172 14.7676C15.1311 14.7676 15.6393 14.7256 15.7342 14.7172V12.4971C18.9934 12.6424 21.4252 13.2111 21.4252 13.8898C21.4252 14.5702 18.9934 15.1372 15.7342 15.2817ZM15.7342 12.2661V10.2787H20.282V7.24796H7.89954V10.2787H12.4473V12.2653C8.7513 12.435 5.97174 13.1674 5.97174 14.0444C5.97174 14.9214 8.7513 15.653 12.4473 15.8235V22.1924H15.7342V15.8218C19.4243 15.6522 22.1972 14.9205 22.1972 14.0444C22.1972 13.1683 19.4243 12.4366 15.7342 12.2661Z" fill="white"/>
</g>
<defs>
<clipPath id="clip0_408_265">
<rect width="26.88" height="26.88" fill="white" transform="translate(0.679688 0.679993)"/>
</clipPath>
</defs>
</svg>
