<svg width="172" height="65" viewBox="0 0 172 65" fill="none" xmlns="http://www.w3.org/2000/svg">
<path fill-rule="evenodd" clip-rule="evenodd" d="M171.171 29.6107C171.518 17.5678 171.642 15.3082 171.94 13.6942C172.189 12.3285 171.642 10.8883 170.674 10.4413C169.159 9.72125 169.532 10.3669 169.06 20.9199C168.936 23.701 168.985 29.5114 168.861 32.0193C168.812 32.7891 167.322 33.1367 167.371 31.8455L167.57 8.15692L168.687 7.9831C169.979 7.78445 170.152 7.31267 169.234 6.26978C168.514 5.45036 167.595 5.25171 162.728 4.90408C100.477 0.633186 100.701 0.186231 59.0595 0.0372462C45.8744 -0.0124154 34.9737 -0.0124154 34.8495 0.0372462C34.2536 0.260723 17.2444 0.136572 3.01634 1.08014C0.756732 1.22913 0.558086 1.42777 1.52649 2.54516C2.4949 3.66254 4.58073 3.7867 18.7095 3.43907C44.2852 2.84313 101.52 3.33974 101.52 4.15916C101.52 4.38264 95.8836 4.48196 87.2425 4.40747C62.5607 4.18399 28.2942 5.7235 6.41821 8.00793C-0.211622 8.70319 -0.261293 8.72803 0.136 9.91991C0.75677 11.7326 0.78161 21.8883 1.07958 25.2405C1.15407 25.9854 2.44529 55.832 2.44529 56.6514C2.44529 58.7372 2.69354 60.0781 3.1405 60.4257C3.63711 60.7982 4.82899 60.8479 4.95315 60.4754C5.00281 60.3016 5.25112 60.3016 5.74773 60.4754C7.13826 60.9968 15.3076 61.27 24.6441 61.121C29.6847 61.0217 37.2333 61.0713 41.4048 61.2203C50.7164 61.5183 84.3869 62.1887 98.6398 62.8591C102.861 63.0578 129.703 64.1752 136.01 64.498C145.024 64.9449 164.417 64.9201 164.715 64.4483C165.484 63.1819 162.43 62.0149 158.333 61.9901C154.956 61.9901 154.857 60.3264 158.755 60.1774C159.028 60.1774 161.139 60.0781 167.62 60.3512C167.62 60.3512 167.62 61.0465 167.446 62.4619C167.272 63.9269 168.836 66.1616 169.606 62.3874C169.656 62.0894 169.879 60.3016 169.879 60.3016C169.879 60.3016 171.146 60.1774 171.344 60.1029C172.064 59.8298 172.213 58.9111 171.543 58.042C171.32 57.7688 170.351 57.4709 170.351 57.4709C170.351 57.4709 170.575 49.9223 171.171 29.6107ZM165.608 14.4888C165.459 16.9222 163.771 52.4054 163.672 53.8704C163.523 56.3783 163.473 56.5521 163.001 56.5521C160.94 56.5521 147.457 54.5905 112.322 55.5589C107.802 55.683 5.59877 57.4212 5.59877 57.4212C5.27597 57.4212 5.02766 57.1729 5.02766 56.8749C4.68003 48.5318 4.38204 46.5453 4.38204 43.2677C4.38204 42.9697 4.60554 42.7462 4.90351 42.7462C5.17665 42.7462 5.42493 42.9697 5.44976 43.2428C6.12019 55.8817 5.89674 56.3038 7.46108 56.3038C7.85837 56.3038 8.15637 55.981 8.15637 55.5837C8.15637 53.1255 7.95772 49.9223 7.78391 47.4889C6.89 34.0058 6.71616 24.2473 5.35046 10.6897C9.02542 10.5903 15.407 10.4662 19.0819 10.0192C32.4658 8.43006 66.2356 8.18175 66.4591 7.95827C66.7323 7.70996 94.2448 7.90861 105.145 8.23141C111.949 8.43005 154.31 9.6716 158.333 9.74609C167.024 9.89507 165.906 9.15015 165.608 14.4888Z" fill="url(#paint0_linear_562_933)"/>
<defs>
<linearGradient id="paint0_linear_562_933" x1="86" y1="0" x2="86" y2="64.8182" gradientUnits="userSpaceOnUse">
<stop stop-color="#163172"/>
<stop offset="1" stop-color="#1E56A0"/>
</linearGradient>
</defs>
</svg>
