<svg width="24" height="24" viewBox="0 0 24 24" fill="none" xmlns="http://www.w3.org/2000/svg">
<path d="M16.42 7.95C18.86 10.39 18.86 14.35 16.42 16.79C13.98 19.23 10.02 19.23 7.58 16.79C5.14 14.35 5.14 10.39 7.58 7.95C10.02 5.51 13.98 5.51 16.42 7.95Z" fill="#163172"/>
<path opacity="0.4" d="M8.25003 22.39C8.16003 22.39 8.06004 22.37 7.97004 22.34C5.72004 21.44 3.90003 19.85 2.68003 17.75C1.50003 15.7 1.03003 13.38 1.34003 11.02C1.39003 10.61 1.78003 10.32 2.18003 10.37C2.59003 10.42 2.88002 10.8 2.83002 11.21C2.57002 13.23 2.97005 15.23 3.98005 16.99C5.02005 18.79 6.59002 20.16 8.52002 20.93C8.90002 21.09 9.09004 21.52 8.94004 21.91C8.83004 22.21 8.54003 22.39 8.25003 22.39Z" fill="#163172"/>
<path opacity="0.4" d="M5.84998 5.22998C5.62998 5.22998 5.40998 5.13 5.25998 4.94C4.99998 4.61 5.05999 4.14001 5.38999 3.89001C7.29999 2.40001 9.57997 1.60999 12 1.60999C14.36 1.60999 16.61 2.37 18.5 3.81C18.83 4.06 18.89 4.52999 18.64 4.85999C18.39 5.18999 17.92 5.25 17.59 5C15.97 3.76 14.04 3.10999 12 3.10999C9.91997 3.10999 7.94997 3.79001 6.30997 5.07001C6.16997 5.18001 6.00998 5.22998 5.84998 5.22998Z" fill="#163172"/>
<path opacity="0.4" d="M15.75 22.39C15.45 22.39 15.17 22.21 15.05 21.92C14.9 21.54 15.08 21.1 15.47 20.94C17.4 20.16 18.97 18.8 20.01 17C21.03 15.24 21.43 13.24 21.16 11.22C21.11 10.81 21.4 10.43 21.81 10.38C22.21 10.33 22.6 10.62 22.65 11.03C22.95 13.38 22.49 15.71 21.31 17.76C20.1 19.86 18.27 21.44 16.02 22.35C15.94 22.37 15.85 22.39 15.75 22.39Z" fill="#163172"/>
</svg>
