<svg viewBox="0 0 219 252" width="219" height="236" fill="none" xmlns="http://www.w3.org/2000/svg">
<path d="M142.916 9.15707V129.612C142.916 131.199 142.285 132.722 141.162 133.844C140.04 134.967 138.517 135.598 136.93 135.598H84.8834C83.2959 135.598 81.7733 134.967 80.6508 133.844C79.5282 132.722 78.8976 131.199 78.8976 129.612V9.15707C78.8976 7.57022 79.5277 6.0483 80.6494 4.92586C81.7711 3.80341 83.2926 3.1723 84.8794 3.17125H107.219L107.239 3.2427C107.795 5.22738 109.077 6.54919 110.498 6.54919H111.292C112.717 6.54919 113.999 5.24326 114.554 3.2427L114.574 3.17125H136.91C137.698 3.16864 138.478 3.32154 139.207 3.62118C139.935 3.92083 140.597 4.36132 141.155 4.91742C141.713 5.47351 142.156 6.13427 142.458 6.8618C142.76 7.58933 142.916 8.36932 142.916 9.15707Z" fill="#F6F6F6" stroke="#263238" stroke-width="0.5" stroke-linecap="round" stroke-linejoin="round"/>
<path d="M146.984 37.9271V25.8959H145.897V10.4947C145.897 7.97658 144.896 5.56156 143.116 3.78095C141.335 2.00034 138.92 1 136.402 1H85.4073C82.8892 1 80.4741 2.00034 78.6935 3.78095C76.9129 5.56156 75.9126 7.97658 75.9126 10.4947V132.882C75.9126 135.401 76.9129 137.816 78.6935 139.596C80.4741 141.377 82.8892 142.377 85.4073 142.377H136.402C138.92 142.377 141.335 141.377 143.116 139.596C144.896 137.816 145.897 135.401 145.897 132.882V48.18H146.984V41.0708H145.897V37.9271H146.984ZM142.916 126.103C142.915 128.621 141.914 131.035 140.134 132.815C138.353 134.596 135.939 135.596 133.421 135.598H88.3923C85.8741 135.598 83.4591 134.597 81.6785 132.817C79.8979 131.036 78.8976 128.621 78.8976 126.103V12.666C78.8976 10.1478 79.8979 7.7328 81.6785 5.95219C83.4591 4.17158 85.8741 3.17125 88.3923 3.17125H107.219L107.239 3.2427C107.795 5.22738 109.077 6.54919 110.498 6.54919H111.292C112.717 6.54919 113.999 5.24326 114.554 3.2427L114.574 3.17125H133.401C134.649 3.16916 135.886 3.41318 137.04 3.88935C138.194 4.36553 139.243 5.06451 140.127 5.94633C141.01 6.82816 141.711 7.87553 142.19 9.02854C142.669 10.1816 142.915 11.4176 142.916 12.666V126.103Z" fill="url(#paint0_linear_1139_2787)" stroke="#263238" stroke-width="0.5" stroke-linecap="round" stroke-linejoin="round"/>
<path d="M135.644 2.30989H86.1695C84.9669 2.30989 83.7761 2.54676 82.6651 3.00695C81.5541 3.46715 80.5446 4.14168 79.6943 4.99202C78.8439 5.84236 78.1694 6.85186 77.7092 7.96288C77.249 9.0739 77.0121 10.2647 77.0121 11.4672V131.914C77.0121 134.343 77.9769 136.672 79.6943 138.389C81.4116 140.106 83.7408 141.071 86.1695 141.071H135.644C136.846 141.071 138.037 140.834 139.148 140.374C140.258 139.914 141.268 139.239 142.118 138.389C142.968 137.539 143.642 136.529 144.102 135.418C144.561 134.307 144.798 133.116 144.797 131.914V11.4672C144.798 10.2649 144.561 9.07417 144.102 7.96318C143.642 6.85218 142.968 5.84265 142.118 4.99226C141.268 4.14187 140.258 3.46728 139.148 3.00703C138.037 2.54679 136.846 2.30989 135.644 2.30989ZM142.916 126.44C142.916 128.869 141.951 131.198 140.234 132.915C138.516 134.633 136.187 135.598 133.758 135.598H88.0549C85.6263 135.598 83.2971 134.633 81.5797 132.915C79.8624 131.198 78.8976 128.869 78.8976 126.44V12.3246C78.8976 9.897 79.862 7.5688 81.5786 5.85221C83.2951 4.13562 85.6233 3.17125 88.051 3.17125H107.219L107.239 3.2427C107.795 5.22738 109.077 6.54919 110.498 6.54919H111.292C112.717 6.54919 113.999 5.24326 114.554 3.2427L114.574 3.17125H133.738C134.943 3.16864 136.136 3.40357 137.249 3.86261C138.362 4.32164 139.374 4.99575 140.227 5.84634C141.079 6.69694 141.755 7.70732 142.217 8.81964C142.678 9.93195 142.916 11.1244 142.916 12.3286V126.44Z" fill="#263238" stroke="#263238" stroke-width="0.5" stroke-linecap="round" stroke-linejoin="round"/>
<path d="M111.601 3.62773C111.602 3.45075 111.55 3.27753 111.452 3.13005C111.355 2.98257 111.215 2.86749 111.052 2.7994C110.888 2.73131 110.709 2.71329 110.535 2.74762C110.361 2.78196 110.202 2.8671 110.077 2.99224C109.952 3.11738 109.866 3.27688 109.832 3.4505C109.798 3.62411 109.816 3.80402 109.884 3.96737C109.952 4.13073 110.067 4.27017 110.214 4.368C110.362 4.46584 110.535 4.51765 110.712 4.51687C110.948 4.51687 111.174 4.42319 111.341 4.25644C111.508 4.0897 111.601 3.86354 111.601 3.62773Z" fill="#F6F6F6"/>
<path d="M84.5857 7.0533C84.5857 7.95434 83.5735 8.27983 83.5695 8.96653V9.01417H84.5539V9.31981H83.2401V9.03798C83.2401 8.07342 84.2522 7.88289 84.2522 7.0533C84.2522 6.74765 84.153 6.58491 83.9029 6.58491C83.6529 6.58491 83.5536 6.75956 83.5536 7.02551V7.29146H83.2401V7.0533C83.2401 6.59682 83.4504 6.29514 83.9109 6.29514C84.3713 6.29514 84.5857 6.58491 84.5857 7.0533Z" fill="#263238"/>
<path d="M86.2251 7.05329V7.12871C86.2404 7.25717 86.213 7.3871 86.147 7.49834C86.0809 7.60959 85.98 7.69593 85.8599 7.74397C85.9807 7.79346 86.0818 7.88126 86.1478 7.99386C86.2138 8.10646 86.2409 8.23762 86.2251 8.36716V8.59738C86.2251 9.05386 86.0107 9.35156 85.5503 9.35156C85.0898 9.35156 84.8795 9.05386 84.8795 8.59738V8.39098H85.1891V8.61723C85.1891 8.88715 85.3002 9.04989 85.5423 9.04989C85.7845 9.04989 85.8917 8.89112 85.8917 8.58944V8.35525C85.8917 8.06152 85.7686 7.92259 85.5146 7.91068H85.3359V7.61298H85.5185C85.5691 7.61323 85.6192 7.60284 85.6655 7.5825C85.7119 7.56215 85.7534 7.5323 85.7875 7.49488C85.8215 7.45746 85.8473 7.4133 85.8632 7.36526C85.8791 7.31723 85.8848 7.26639 85.8797 7.21604V7.05329C85.8797 6.74765 85.7726 6.58888 85.5304 6.58888C85.2883 6.58888 85.1772 6.75559 85.1772 7.02551V7.18031H84.8676V7.05329C84.8676 6.59682 85.0819 6.30308 85.5384 6.30308C85.9949 6.30308 86.2251 6.58094 86.2251 7.05329Z" fill="#263238"/>
<path d="M86.8681 7.26367V7.66061H86.5505V7.26367H86.8681ZM86.8681 8.89111V9.3079H86.5505V8.89111H86.8681Z" fill="#263238"/>
<path d="M87.5468 7.53359C87.5901 7.45479 87.6549 7.38986 87.7335 7.34631C87.8122 7.30275 87.9016 7.28236 87.9914 7.28749C88.3883 7.28749 88.5431 7.56932 88.5431 7.99404V8.58151C88.5431 9.03798 88.3288 9.33569 87.8683 9.33569C87.4079 9.33569 87.1975 9.03798 87.1975 8.58151V8.37907H87.5032V8.60135C87.5032 8.87127 87.6143 9.03401 87.8525 9.03401C88.0906 9.03401 88.2057 8.87127 88.2057 8.60135V8.02183C88.2057 7.75191 88.0946 7.58916 87.8525 7.58916C87.8091 7.58757 87.7658 7.59468 87.7252 7.61008C87.6845 7.62547 87.6474 7.64884 87.616 7.6788C87.5845 7.70876 87.5594 7.74471 87.5421 7.78454C87.5247 7.82436 87.5156 7.86725 87.5151 7.91068V7.97816H87.2055L87.2848 6.31499H88.4756V6.6127H87.5944L87.5468 7.53359Z" fill="#263238"/>
<path d="M90.2063 7.0533V7.10887H89.8848V7.0136C89.8848 6.74369 89.7737 6.58491 89.5316 6.58491C89.2894 6.58491 89.1664 6.74765 89.1664 7.06917V7.74C89.2009 7.64085 89.2669 7.55573 89.3543 7.49766C89.4418 7.4396 89.5459 7.41178 89.6506 7.41848C90.0476 7.41848 90.2063 7.69633 90.2063 8.129V8.5815C90.2063 9.03798 89.9761 9.33569 89.5196 9.33569C89.0632 9.33569 88.8329 9.03798 88.8329 8.5815V7.0533C88.8329 6.58094 89.0473 6.28721 89.5196 6.28721C89.992 6.28721 90.2063 6.57697 90.2063 7.0533ZM89.1783 8.17266V8.60135C89.1783 8.87127 89.2894 9.03401 89.5316 9.03401C89.7737 9.03401 89.8888 8.87127 89.8888 8.60135V8.15281C89.8888 7.88289 89.7737 7.72015 89.5316 7.72015C89.2894 7.72015 89.1783 7.88289 89.1783 8.15281V8.17266Z" fill="#263238"/>
<path d="M122.866 7.16444H122.021V9.27615H122.866V7.16444Z" fill="#263238"/>
<path d="M123.994 6.74369H123.148V9.28012H123.994V6.74369Z" fill="#263238"/>
<path d="M125.117 6.44201H124.271V9.27615H125.117V6.44201Z" fill="#263238"/>
<path d="M126.244 5.91805H125.399V9.27614H126.244V5.91805Z" fill="#263238"/>
<path d="M136.696 9.21661H131.627V6.12049H136.696V9.21661ZM131.909 8.93875H136.414V6.40232H131.909V8.93875Z" fill="#263238"/>
<path d="M135.009 6.70796H132.333V8.62914H135.009V6.70796Z" fill="#263238"/>
<path d="M137.16 7.30337H136.521V8.03373H137.16V7.30337Z" fill="#263238"/>
<path d="M129.769 8.54578C129.735 8.54592 129.702 8.53627 129.674 8.51799C128.642 7.90671 127.959 8.47433 127.931 8.51799C127.914 8.53564 127.893 8.54965 127.87 8.55921C127.848 8.56878 127.823 8.5737 127.798 8.5737C127.774 8.5737 127.749 8.56878 127.726 8.55921C127.703 8.54965 127.683 8.53564 127.665 8.51799C127.631 8.48242 127.611 8.4347 127.611 8.38502C127.611 8.33534 127.631 8.28762 127.665 8.25204C127.705 8.22029 128.574 7.45817 129.852 8.25204C129.874 8.26469 129.892 8.28143 129.907 8.3013C129.922 8.32116 129.932 8.34376 129.938 8.36777C129.944 8.39177 129.945 8.41671 129.941 8.44114C129.937 8.46557 129.929 8.48899 129.916 8.51005C129.895 8.52551 129.871 8.53663 129.846 8.54277C129.821 8.5489 129.795 8.54993 129.769 8.54578Z" fill="#263238"/>
<path d="M130.15 7.90671C130.117 7.9064 130.084 7.89824 130.055 7.8829C128.562 6.99376 127.562 7.85511 127.55 7.8829C127.512 7.91129 127.464 7.9242 127.416 7.91905C127.369 7.91389 127.325 7.89107 127.294 7.85509C127.262 7.81911 127.245 7.77262 127.247 7.72483C127.248 7.67704 127.267 7.63145 127.3 7.5971C127.3 7.5971 128.523 6.54919 130.249 7.5971C130.271 7.60975 130.289 7.62649 130.304 7.64636C130.319 7.66622 130.329 7.68881 130.335 7.71282C130.341 7.73683 130.342 7.76177 130.338 7.7862C130.334 7.81062 130.326 7.83405 130.313 7.85511C130.292 7.87604 130.266 7.89165 130.238 7.90062C130.209 7.9096 130.179 7.91169 130.15 7.90671Z" fill="#263238"/>
<path d="M130.499 7.17238C130.464 7.17307 130.43 7.1634 130.4 7.14459C128.511 6.02126 127.256 7.08108 127.205 7.14459C127.186 7.161 127.165 7.17353 127.141 7.18143C127.117 7.18933 127.093 7.19244 127.068 7.1906C127.043 7.18875 127.019 7.18197 126.997 7.17066C126.975 7.15935 126.955 7.14374 126.939 7.12474C126.921 7.10738 126.907 7.08668 126.898 7.06386C126.888 7.04103 126.883 7.01652 126.883 6.99177C126.883 6.96702 126.888 6.94251 126.898 6.91969C126.907 6.89686 126.921 6.87616 126.939 6.8588C126.939 6.8588 128.447 5.57272 130.579 6.8588C130.622 6.88517 130.653 6.92724 130.666 6.97613C130.678 7.02502 130.671 7.07689 130.646 7.12077C130.627 7.13923 130.604 7.15337 130.578 7.16226C130.553 7.17115 130.526 7.1746 130.499 7.17238Z" fill="#263238"/>
<path d="M129.201 8.86333C129.201 8.95754 129.174 9.04963 129.121 9.12796C129.069 9.20629 128.994 9.26734 128.907 9.3034C128.82 9.33945 128.725 9.34888 128.632 9.3305C128.54 9.31212 128.455 9.26676 128.388 9.20014C128.322 9.13353 128.276 9.04865 128.258 8.95625C128.24 8.86386 128.249 8.76808 128.285 8.68105C128.321 8.59401 128.382 8.51962 128.461 8.46728C128.539 8.41494 128.631 8.387 128.725 8.387C128.788 8.38648 128.85 8.39844 128.908 8.42219C128.966 8.44594 129.019 8.481 129.063 8.52534C129.107 8.56968 129.143 8.62239 129.166 8.68042C129.19 8.73845 129.202 8.80063 129.201 8.86333Z" fill="#263238"/>
<path d="M48 25.1179H52.6283" stroke="#263238" stroke-width="0.5" stroke-linecap="round" stroke-linejoin="round"/>
<path d="M83.8792 25.1179H88.5075" stroke="#263238" stroke-width="0.5" stroke-linecap="round" stroke-linejoin="round"/>
<path d="M52.6283 12.9677L55.2322 14.992" stroke="#263238" stroke-width="0.5" stroke-linecap="round" stroke-linejoin="round"/>
<path d="M83.2996 12.9677L80.6957 14.992" stroke="#263238" stroke-width="0.5" stroke-linecap="round" stroke-linejoin="round"/>
<path d="M63.0439 8.04961L63.3337 12.3881" stroke="#263238" stroke-width="0.5" stroke-linecap="round" stroke-linejoin="round"/>
<path d="M73.1738 8.62517L72.5942 12.3881" stroke="#263238" stroke-width="0.5" stroke-linecap="round" stroke-linejoin="round"/>
<path d="M79.7391 19.6997H54.7559V41.2574H79.7391V19.6997Z" fill="#F6F6F6" stroke="#263238" stroke-width="0.5" stroke-linecap="round" stroke-linejoin="round"/>
<path d="M64.0323 19.6997H59.3207V41.2574H64.0323V19.6997Z" fill="url(#paint1_linear_1139_2787)" stroke="#263238" stroke-width="0.5" stroke-linecap="round" stroke-linejoin="round"/>
<path d="M79.7392 19.6997H68.7877V41.2574H79.7392V19.6997Z" fill="#F6F6F6" stroke="#263238" stroke-width="0.5" stroke-linecap="round" stroke-linejoin="round"/>
<path d="M65.4851 17.9413L61.8214 16.3535C61.7316 16.3459 61.6413 16.3459 61.5515 16.3535L61.4919 16.3218H57.8044L60.6782 17.6714C60.6928 17.8733 60.7233 18.0737 60.7695 18.2708C60.8657 18.5719 61.0355 18.8443 61.2636 19.0634C61.4916 19.2824 61.7706 19.4411 62.0754 19.5251L62.0992 19.6402H62.4962L68.875 19.7275C68.875 19.7275 67.2237 18.8185 65.4851 17.9413Z" fill="url(#paint2_linear_1139_2787)" stroke="#263238" stroke-width="0.5" stroke-linecap="round" stroke-linejoin="round"/>
<path d="M65.1913 19.6997C65.1913 19.6997 61.222 17.5602 59.0706 16.6195C56.9192 15.6787 56.8438 17.1315 57.0859 18.243C57.328 19.3544 58.7967 19.6124 58.7967 19.6124L65.1913 19.6997Z" fill="url(#paint3_linear_1139_2787)" stroke="#263238" stroke-width="0.5" stroke-linecap="round" stroke-linejoin="round"/>
<path d="M66.1361 18.1398H64.7349C64.5351 18.1392 64.3372 18.1782 64.1525 18.2544C63.9678 18.3306 63.8 18.4426 63.6587 18.5839C63.5174 18.7251 63.4055 18.8929 63.3293 19.0776C63.2531 19.2623 63.2141 19.4602 63.2146 19.66H67.6563C67.6563 19.2568 67.4962 18.8701 67.2111 18.585C66.926 18.2999 66.5393 18.1398 66.1361 18.1398Z" fill="url(#paint4_linear_1139_2787)" stroke="#263238" stroke-width="0.5" stroke-linecap="round" stroke-linejoin="round"/>
<path d="M74.8925 16.3377H71.6535L71.2327 17.9254C69.4941 18.8026 67.8588 19.6838 67.8588 19.6838L74.2376 19.5965H74.6345L74.6543 19.4814C74.9599 19.398 75.2397 19.2395 75.4685 19.0205C75.6972 18.8014 75.8676 18.5287 75.9642 18.2271C76.1587 17.3221 76.1349 16.1829 74.8925 16.3377Z" fill="url(#paint5_linear_1139_2787)" stroke="#263238" stroke-width="0.5" stroke-linecap="round" stroke-linejoin="round"/>
<path d="M64.0323 19.6997C64.0323 19.6997 68.0017 17.5602 70.157 16.6195C72.3124 15.6787 72.3799 17.1315 72.1219 18.243C71.8639 19.3544 70.4111 19.6124 70.4111 19.6124L64.0323 19.6997Z" fill="url(#paint6_linear_1139_2787)" stroke="#263238" stroke-width="0.5" stroke-linecap="round" stroke-linejoin="round"/>
<path d="M55.5696 42.7777C55.5696 42.7777 53.4817 41.3884 53.9382 40.9478C54.3947 40.5072 56.6374 41.4757 57.1494 42.1386C57.6615 42.8015 57.4034 43.2461 56.9787 43.2857C56.554 43.3254 55.5696 42.7777 55.5696 42.7777Z" fill="#F6F6F6" stroke="#263238" stroke-width="0.5" stroke-linecap="round" stroke-linejoin="round"/>
<path d="M57.3359 41.1582C57.3359 41.1582 54.1009 39.4791 54.8789 41.0311C55.6569 42.5832 57.594 44.0082 58.3719 44.3972C59.1499 44.7862 63.421 44.6552 63.421 44.6552C63.421 44.6552 62.6271 43.2302 61.865 42.8412C61.1029 42.4522 57.3359 41.1582 57.3359 41.1582Z" fill="#F6F6F6" stroke="#263238" stroke-width="0.5" stroke-linecap="round" stroke-linejoin="round"/>
<path d="M60.44 41.1582C60.44 41.1582 56.169 38.8321 56.038 39.7371C55.907 40.6421 59.404 43.6192 60.5671 44.1352C61.4796 44.4728 62.4441 44.6487 63.4171 44.6552L60.44 41.1582Z" fill="#F6F6F6" stroke="#263238" stroke-width="0.5" stroke-linecap="round" stroke-linejoin="round"/>
<path d="M77.2622 45.1593C77.2622 45.1593 75.7102 41.5353 74.5432 41.0192C73.3762 40.5032 62.8971 41.5353 62.8971 41.5353C62.8971 41.5353 57.848 37.3952 58.237 39.4632C58.626 41.5313 61.8611 43.9963 62.7661 44.6234C63.6711 45.2506 70.4031 45.0204 70.4031 45.0204L72.4752 46.9614L77.2622 45.1593Z" fill="#F6F6F6" stroke="#263238" stroke-width="0.5" stroke-linecap="round" stroke-linejoin="round"/>
<path d="M140.979 50.9784C140.736 51.4479 140.671 51.9891 140.796 52.5026C140.999 53.0097 141.311 53.4663 141.709 53.8403L142.015 55.7297L146.159 55.9123L144.452 49.5613L140.979 50.9784Z" fill="#F6F6F6" stroke="#263238" stroke-width="0.5" stroke-linecap="round" stroke-linejoin="round"/>
<path d="M138.164 39.2052C138.164 39.2052 139.891 50.4386 140.149 51.1134C140.407 51.7881 142.396 52.582 143.09 52.2367C143.785 51.8914 142.57 50.252 142.57 50.252L142.916 39.4513C142.916 39.4513 139.978 38.332 138.164 39.2052Z" fill="#263238" stroke="#263238" stroke-width="0.5" stroke-linecap="round" stroke-linejoin="round"/>
<path d="M143.003 42.738C143.003 42.738 140.582 42.5673 140.494 43C140.407 43.4326 140.411 44.8973 140.844 45.072C141.276 45.2466 144.214 45.5046 144.73 45.33C144.902 45.2423 145.056 45.1206 145.18 44.9723C145.305 44.824 145.399 44.652 145.455 44.4668C145.512 44.2815 145.531 44.0867 145.51 43.894C145.49 43.7013 145.431 43.5147 145.337 43.3453C144.817 42.5673 143.003 42.738 143.003 42.738Z" fill="#F6F6F6" stroke="#263238" stroke-width="0.5" stroke-linecap="round" stroke-linejoin="round"/>
<path d="M143.003 45.5046C143.003 45.5046 140.669 45.5046 140.756 46.0207C140.844 46.5367 140.582 47.664 141.55 47.8386C142.699 47.9814 143.863 47.952 145.004 47.7513C145.198 47.7153 145.377 47.6237 145.52 47.4877C145.663 47.3516 145.764 47.177 145.81 46.985C145.855 46.7929 145.845 46.5917 145.778 46.4058C145.712 46.2198 145.593 46.0571 145.436 45.9373C144.73 45.33 143.003 45.5046 143.003 45.5046Z" fill="#F6F6F6" stroke="#263238" stroke-width="0.5" stroke-linecap="round" stroke-linejoin="round"/>
<path d="M139.252 46.1675C139.252 46.1675 138.954 43.9923 138.252 44.0518C137.728 44.0955 136.477 44.4924 136.593 45.4491C136.79 46.591 137.159 47.6965 137.688 48.7278C137.779 48.9029 137.92 49.0477 138.092 49.1447C138.264 49.2417 138.46 49.2866 138.658 49.274C138.855 49.2613 139.044 49.1918 139.202 49.0737C139.361 48.9556 139.481 48.794 139.55 48.6087C139.927 47.7711 139.252 46.1675 139.252 46.1675Z" fill="#F6F6F6" stroke="#263238" stroke-width="0.5" stroke-linecap="round" stroke-linejoin="round"/>
<path d="M143.134 47.8347C143.134 47.8347 141.022 47.8346 141.102 48.3348C141.181 48.8349 140.943 49.9225 141.804 50.0813C142.845 50.2174 143.9 50.1893 144.932 49.998C145.113 49.954 145.278 49.8605 145.408 49.728C145.539 49.5954 145.63 49.4291 145.671 49.2476C145.713 49.0662 145.702 48.8768 145.642 48.7008C145.581 48.5248 145.473 48.3692 145.329 48.2514C144.698 47.6719 143.134 47.8347 143.134 47.8347Z" fill="#F6F6F6" stroke="#263238" stroke-width="0.5" stroke-linecap="round" stroke-linejoin="round"/>
<path d="M143.233 49.732C143.233 49.732 141.467 49.732 141.534 50.1289C141.602 50.5259 141.403 51.4507 142.122 51.5897C142.992 51.707 143.875 51.6842 144.738 51.5222C144.888 51.4843 145.025 51.4053 145.133 51.2941C145.242 51.1828 145.317 51.0437 145.351 50.8922C145.384 50.7407 145.375 50.5827 145.325 50.4361C145.274 50.2894 145.183 50.1597 145.063 50.0615C144.543 49.5931 143.233 49.732 143.233 49.732Z" fill="#F6F6F6" stroke="#263238" stroke-width="0.5" stroke-linecap="round" stroke-linejoin="round"/>
<path d="M137.684 27.829C136.564 27.8331 135.469 28.1551 134.525 28.7576C133.581 29.3601 132.828 30.2183 132.353 31.2323C131.878 32.2462 131.701 33.3742 131.842 34.485C131.984 35.5957 132.437 36.6435 133.151 37.5063C134.235 38.8123 136.009 39.749 137.7 39.6419C142.884 39.3243 156.475 46.6041 156.475 46.6041V20.8667C156.475 20.8667 143.074 27.9362 137.684 27.829Z" fill="#F6F6F6" stroke="#263238" stroke-width="0.5" stroke-linecap="round" stroke-linejoin="round"/>
<path d="M136.628 33.9458C136.628 32.617 136.987 31.3129 137.666 30.1707C138.345 29.0285 139.319 28.0906 140.486 27.4559C139.57 27.6911 138.63 27.8163 137.684 27.829C136.564 27.8331 135.469 28.1551 134.525 28.7576C133.581 29.3601 132.828 30.2183 132.353 31.2323C131.878 32.2462 131.701 33.3742 131.842 34.485C131.984 35.5957 132.437 36.6435 133.151 37.5063C134.235 38.8123 136.009 39.749 137.7 39.6419C138.301 39.6184 138.902 39.6596 139.494 39.7649C138.604 39.078 137.883 38.1964 137.386 37.1877C136.889 36.1791 136.63 35.0701 136.628 33.9458Z" fill="url(#paint7_linear_1139_2787)" stroke="#263238" stroke-width="0.5" stroke-linecap="round" stroke-linejoin="round"/>
<path d="M168.956 36.7728C170.637 29.8672 166.402 22.9066 159.496 21.2257C152.591 19.5449 145.63 23.7804 143.949 30.6859C142.268 37.5915 146.504 44.5522 153.409 46.233C160.315 47.9139 167.276 43.6784 168.956 36.7728Z" fill="#F6F6F6" stroke="#263238" stroke-width="0.5" stroke-linecap="round" stroke-linejoin="round"/>
<path d="M167.426 33.7354C167.427 35.9055 166.784 38.0271 165.579 39.8319C164.374 41.6366 162.661 43.0435 160.656 43.8745C158.652 44.7055 156.446 44.9233 154.317 44.5004C152.189 44.0775 150.233 43.0329 148.699 41.4987C147.164 39.9645 146.119 38.0096 145.695 35.8813C145.271 33.7529 145.488 31.5467 146.319 29.5418C147.149 27.5368 148.555 25.8231 150.359 24.6173C152.164 23.4116 154.285 22.7681 156.455 22.7681C159.364 22.7691 162.153 23.9248 164.21 25.9812C166.268 28.0377 167.424 30.8267 167.426 33.7354Z" fill="#A6A6A6" stroke="#263238" stroke-width="0.5" stroke-linecap="round" stroke-linejoin="round"/>
<path d="M156.455 31.0561V36.4267L148.016 40.7493C146.731 39.1968 145.897 37.3206 145.607 35.326C145.316 33.3314 145.58 31.2953 146.369 29.4406L156.455 31.0561Z" fill="#F6F6F6" stroke="#263238" stroke-width="0.5" stroke-linecap="round" stroke-linejoin="round"/>
<path d="M159.135 33.7354C159.135 34.2655 158.977 34.7837 158.683 35.2244C158.388 35.6651 157.969 36.0085 157.48 36.2112C156.99 36.4139 156.451 36.4667 155.931 36.363C155.411 36.2593 154.934 36.0037 154.559 35.6286C154.185 35.2535 153.93 34.7757 153.827 34.2557C153.724 33.7357 153.778 33.1969 153.981 32.7073C154.184 32.2178 154.528 31.7997 154.97 31.5057C155.411 31.2118 155.929 31.0553 156.459 31.0561C157.169 31.0572 157.85 31.3399 158.351 31.8423C158.853 32.3446 159.135 33.0255 159.135 33.7354Z" fill="#F6F6F6" stroke="#263238" stroke-width="0.5" stroke-linecap="round" stroke-linejoin="round"/>
<path d="M141.145 55.9004L140.717 54.1023L146.282 53.4156L146.159 55.9123L141.145 55.9004Z" fill="#F6F6F6" stroke="#263238" stroke-width="0.5" stroke-linecap="round" stroke-linejoin="round"/>
<path d="M72.1417 47.6798L70.8596 45.6237L76.766 42.6268L77.2622 45.1474L72.1417 47.6798Z" fill="#F6F6F6" stroke="#263238" stroke-width="0.5" stroke-linecap="round" stroke-linejoin="round"/>
<path d="M108.045 44.7068C108.045 44.7068 98.55 43.6509 97.7243 44.0717C96.8987 44.4924 84.8556 58.7346 84.8556 58.7346L77.4567 43.9685L71.2288 46.7073C71.2288 46.7073 79.0326 73.3022 80.2988 73.6038C81.565 73.9055 93.5882 65.9072 93.5882 65.9072L92.8499 76.4538C92.8499 76.4538 95.0649 85.3135 104.877 87.0005C114.689 88.6875 120.485 81.094 121.751 78.5616C122.694 76.5431 123.504 74.4654 124.176 72.3416L128.713 58.9449C128.713 58.9449 141.487 69.3725 144.329 70.6506C147.171 71.9288 149.81 73.0799 150.128 72.4448C150.446 71.8097 147.282 54.9359 147.282 54.9359L140.534 55.2534L140.852 57.8891C140.852 57.8891 132.095 46.3779 131.357 45.2307C130.619 44.0836 128.404 44.2821 125.768 43.5438C123.132 42.8055 108.045 44.7068 108.045 44.7068Z" fill="url(#paint8_linear_1139_2787)" stroke="#263238" stroke-width="0.5" stroke-linecap="round" stroke-linejoin="round"/>
<path d="M93.5922 65.9072L100.662 60.6319" stroke="#263238" stroke-width="0.5" stroke-linecap="round" stroke-linejoin="round"/>
<path d="M98.1292 62.6364L101.714 62.0013" stroke="#263238" stroke-width="0.5" stroke-linecap="round" stroke-linejoin="round"/>
<path d="M128.717 58.9449L131.143 50.3989" stroke="#263238" stroke-width="0.5" stroke-linecap="round" stroke-linejoin="round"/>
<path d="M129.666 56.2021L132.302 52.5106" stroke="#263238" stroke-width="0.5" stroke-linecap="round" stroke-linejoin="round"/>
<path d="M141.161 64.0297L141.268 66.1176" stroke="#263238" stroke-width="0.5" stroke-linecap="round" stroke-linejoin="round"/>
<path d="M140.848 57.8891L141.038 61.6481" stroke="#263238" stroke-width="0.5" stroke-linecap="round" stroke-linejoin="round"/>
<path d="M84.8397 58.7346L87.0546 63.3748" stroke="#263238" stroke-width="0.5" stroke-linecap="round" stroke-linejoin="round"/>
<path d="M111.629 43.5438L106.989 44.3892C106.989 44.3892 105.302 45.7587 104.353 48.9223C103.777 50.8548 103.354 52.8297 103.087 54.8287L107.096 55.043L103.921 58.2185C103.921 58.2185 104.873 59.588 106.874 62.5412C108.455 64.7676 110.178 66.8891 112.034 68.8922L106.159 76.4538C106.159 76.4538 113.332 74.8661 117.762 70.0195C122.192 65.1729 124.815 57.8891 124.815 57.8891L121.334 55.1462L125.026 54.4079C125.026 54.4079 125.764 48.3983 121.85 44.4845C117.936 40.5707 111.629 43.5438 111.629 43.5438Z" fill="url(#paint9_linear_1139_2787)" stroke="#263238" stroke-width="0.5" stroke-linecap="round" stroke-linejoin="round"/>
<path d="M122.072 46.0762C122.072 46.0762 120.842 48.5134 120.596 53.0385C120.405 56.5712 118.552 61.0725 116.916 64.256C115.618 66.7884 114.455 68.4873 114.372 68.2253C114.372 68.2253 113.689 67.1298 112.598 63.9384C112.332 63.1763 112.046 62.2871 111.736 61.2591C110.148 55.9838 108.783 47.4417 109.414 45.7547C109.71 44.9231 110.063 44.1128 110.47 43.3294C115.535 50.1885 122.072 46.0762 122.072 46.0762Z" fill="#F6F6F6" stroke="#263238" stroke-width="0.5" stroke-linecap="round" stroke-linejoin="round"/>
<path d="M115.638 60.5287L116.916 64.256C115.618 66.7884 114.455 68.4873 114.372 68.2253C114.372 68.2253 113.689 67.1298 112.598 63.9384L114.372 60.7351L112.61 57.4366L114.689 55.3526L117.535 58.2027L115.638 60.5287Z" fill="#263238" stroke="#263238" stroke-width="0.5" stroke-linecap="round" stroke-linejoin="round"/>
<path d="M111.208 58.9449L114.689 55.3566L118.929 59.3577" stroke="#263238" stroke-width="0.5" stroke-linecap="round" stroke-linejoin="round"/>
<path d="M110.47 43.3334C110.589 45.4584 111.015 47.5549 111.736 49.5574C112.535 51.5795 113.524 53.5213 114.689 55.3566L119.655 48.2911C119.655 48.2911 114.269 48.8191 110.47 43.3334Z" stroke="#263238" stroke-width="0.5" stroke-linecap="round" stroke-linejoin="round"/>
<path d="M125.558 32.1556C125.558 32.1556 127.066 31.9214 127.066 33.9815C127.066 36.0416 126.193 38.5781 126.193 38.5781L125.558 32.1556Z" fill="#F6F6F6" stroke="#263238" stroke-width="0.5" stroke-linecap="round" stroke-linejoin="round"/>
<path d="M125.026 24.5582C125.026 24.5582 126.082 34.1562 126.185 37.0062C126.288 39.8562 125.974 42.3847 125.026 43.6509C124.077 44.9172 120.262 49.9781 118.278 50.1885C116.293 50.3989 114.058 49.347 113.217 48.6007C112.375 47.8545 108.362 41.5313 108.362 41.5313C108.362 41.5313 105.306 41.3209 104.568 37.3118C103.829 33.3028 107.942 34.2554 107.942 34.2554C107.942 34.2554 105.727 30.7743 105.516 27.4003C105.306 24.0263 104.671 22.7561 113.745 22.5458C122.819 22.3354 125.026 24.5582 125.026 24.5582Z" fill="#F6F6F6" stroke="#263238" stroke-width="0.5" stroke-linecap="round" stroke-linejoin="round"/>
<path d="M120.278 31.3102L122.811 40.0626L118.909 38.9036" stroke="#263238" stroke-width="0.5" stroke-linecap="round" stroke-linejoin="round"/>
<path d="M115.007 37.8477L111.947 38.4828" stroke="#263238" stroke-width="0.5" stroke-linecap="round" stroke-linejoin="round"/>
<path d="M113.53 38.3756C113.824 39.2713 114.367 40.0649 115.095 40.6631C115.823 41.2614 116.707 41.6397 117.643 41.7536C121.017 42.2775 122.704 41.6464 122.704 41.6464" stroke="#263238" stroke-width="0.5" stroke-linecap="round" stroke-linejoin="round"/>
<path d="M114.372 40.0626C114.372 40.0626 114.269 45.3379 116.166 45.5483C118.063 45.7587 117.643 41.7536 117.643 41.7536C116.445 41.4288 115.33 40.8523 114.372 40.0626Z" fill="#263238" stroke="#263238" stroke-width="0.5" stroke-linecap="round" stroke-linejoin="round"/>
<path d="M114.761 43.7105C115.019 44.6711 115.452 45.4689 116.166 45.5483C116.346 45.5737 116.529 45.5502 116.697 45.4804C116.864 45.4105 117.01 45.2969 117.119 45.1514C116.75 44.5043 115.475 43.9685 114.761 43.7105Z" fill="#F6F6F6" stroke="#263238" stroke-width="0.5" stroke-linecap="round" stroke-linejoin="round"/>
<path d="M115.686 33.7354C115.686 34.3189 115.428 34.7913 115.106 34.7913C114.785 34.7913 114.527 34.3189 114.527 33.7354C114.527 33.1519 114.785 32.6796 115.106 32.6796C115.428 32.6796 115.686 33.1519 115.686 33.7354Z" fill="#263238"/>
<path d="M122.759 32.7868C122.759 33.3703 122.497 33.8426 122.176 33.8426C121.854 33.8426 121.596 33.3703 121.596 32.7868C121.596 32.2033 121.858 31.7309 122.176 31.7309C122.493 31.7309 122.759 32.2033 122.759 32.7868Z" fill="#263238"/>
<path d="M113.213 31.9413C113.706 31.3812 114.33 30.9528 115.03 30.695C115.73 30.4372 116.484 30.358 117.222 30.4647" stroke="#263238" stroke-width="0.5" stroke-linecap="round" stroke-linejoin="round"/>
<path d="M120.596 30.0439C120.596 30.0439 121.965 27.5115 124.168 28.7777" stroke="#263238" stroke-width="0.5" stroke-linecap="round" stroke-linejoin="round"/>
<path d="M113.844 24.7686C113.844 24.7686 110.577 24.2407 111.315 25.1933C112.054 26.146 113.741 27.3011 112.903 28.0394C112.066 28.7777 109.95 30.0241 110.057 30.675C110.164 31.326 110.371 33.9458 110.057 34.5809C109.744 35.216 109.001 35.3192 108.263 35.212C107.525 35.1049 106.469 33.2075 106.048 32.6796C105.627 32.1517 101.829 28.3569 102.567 25.2965C103.305 22.2362 111.216 19.8109 111.216 19.8109C111.216 19.8109 116.269 14.1188 119.655 14.0116C123.041 13.9044 121.763 17.072 121.64 17.3856C121.517 17.6992 126.49 17.072 127.439 20.1284C128.388 23.1848 128.074 24.0303 123.748 25.1933C119.421 26.3564 113.844 24.7686 113.844 24.7686Z" fill="#263238" stroke="#263238" stroke-width="0.5" stroke-linecap="round" stroke-linejoin="round"/>
<path d="M93.5526 107.399V95.2488H96.4621C97.1666 95.231 97.8692 95.3289 98.5421 95.5386C99.0765 95.7097 99.5333 96.0639 99.8321 96.5389C100.157 97.1237 100.311 97.788 100.277 98.4561C100.28 98.9003 100.235 99.3436 100.142 99.7779C100.062 100.141 99.9049 100.482 99.6813 100.778C99.4461 101.066 99.1375 101.286 98.7882 101.413L100.483 107.399H98.2642L96.7955 101.842H95.7754V107.399H93.5526ZM95.7754 100.437H96.4621C96.8145 100.454 97.1661 100.39 97.4902 100.25C97.7443 100.13 97.941 99.9148 98.0379 99.6509C98.1598 99.3126 98.2164 98.9544 98.2047 98.595C98.2399 98.1131 98.1218 97.6324 97.8673 97.2216C97.641 96.916 97.2123 96.7612 96.5852 96.7612H95.7913L95.7754 100.437Z" fill="url(#paint10_linear_1139_2787)"/>
<path d="M101.94 107.399V95.2489H107.04V96.8088H104.175V100.302H106.437V101.85H104.175V105.891H107.084V107.419L101.94 107.399Z" fill="url(#paint11_linear_1139_2787)"/>
<path d="M108.362 107.399V95.2489H113.36V96.7612H110.581V100.334H112.848V101.882H110.581V107.399H108.362Z" fill="url(#paint12_linear_1139_2787)"/>
<path d="M114.515 107.399V95.2489H119.615V96.8088H116.734V100.302H119V101.85H116.734V105.891H119.655V107.419L114.515 107.399Z" fill="url(#paint13_linear_1139_2787)"/>
<path d="M120.937 107.399V95.2489H123.847C124.55 95.231 125.251 95.3289 125.923 95.5386C126.459 95.7088 126.917 96.0632 127.217 96.5389C127.54 97.1241 127.693 97.7884 127.657 98.4561C127.663 98.9004 127.618 99.3439 127.522 99.7779C127.444 100.14 127.288 100.481 127.066 100.778C126.831 101.066 126.522 101.286 126.173 101.413L127.868 107.399H125.645L124.176 101.842H123.156V107.399H120.937ZM123.156 100.437H123.847C124.199 100.453 124.551 100.389 124.875 100.25C125.127 100.128 125.323 99.9133 125.423 99.6509C125.541 99.3119 125.596 98.954 125.585 98.595C125.621 98.1131 125.503 97.6324 125.248 97.2216C125.026 96.916 124.597 96.7612 123.966 96.7612H123.172L123.156 100.437Z" fill="url(#paint14_linear_1139_2787)"/>
<path d="M84.3039 123.023L86.7331 110.872H89.1148L91.548 123.023H89.4879L89.0076 120.22H86.8919L86.3958 123.023H84.3039ZM87.1063 118.807H88.7536L87.9279 113.706L87.1063 118.807Z" fill="url(#paint15_linear_1139_2787)"/>
<path d="M96.335 123.023V110.872H101.332V112.401H98.5539V115.941H100.816V117.489H98.5539V123.023H96.335Z" fill="url(#paint16_linear_1139_2787)"/>
<path d="M102.488 123.023V110.872H105.397C106.102 110.855 106.804 110.953 107.477 111.162C108.012 111.333 108.468 111.687 108.767 112.162C109.091 112.748 109.243 113.412 109.208 114.08C109.213 114.524 109.169 114.967 109.077 115.401C108.997 115.764 108.84 116.105 108.616 116.402C108.381 116.69 108.073 116.909 107.723 117.037L109.418 123.023H107.199L105.731 117.465H104.71V123.023H102.488ZM104.71 116.064H105.397C105.75 116.08 106.102 116.015 106.425 115.874C106.679 115.752 106.875 115.538 106.973 115.274C107.095 114.936 107.151 114.578 107.14 114.219C107.173 113.737 107.055 113.257 106.802 112.845C106.576 112.539 106.147 112.385 105.52 112.385H104.726L104.71 116.064Z" fill="url(#paint17_linear_1139_2787)"/>
<path d="M110.922 123.023V110.872H113.114V123.023H110.922Z" fill="url(#paint18_linear_1139_2787)"/>
<path d="M115.003 123.023V110.872H120.104V112.432H117.222V115.925H119.488V117.473H117.222V121.494H120.131V123.023H115.003Z" fill="url(#paint19_linear_1139_2787)"/>
<path d="M121.422 123.023V110.872H122.97L125.923 117.799V110.872H127.757V123.023H126.284L123.315 115.763V123.023H121.422Z" fill="url(#paint20_linear_1139_2787)"/>
<path d="M129.598 123.023V110.872H132.464C133.258 110.833 134.051 110.968 134.786 111.269C135.324 111.52 135.749 111.964 135.977 112.512C136.233 113.192 136.353 113.916 136.33 114.643V119.085C136.352 119.834 136.232 120.58 135.977 121.284C135.756 121.852 135.332 122.318 134.786 122.59C134.082 122.905 133.314 123.051 132.544 123.015L129.598 123.023ZM131.821 121.478H132.496C132.881 121.512 133.266 121.417 133.592 121.209C133.821 121.005 133.963 120.721 133.989 120.415C134.044 119.994 134.069 119.569 134.064 119.145V114.5C134.074 114.101 134.038 113.701 133.957 113.31C133.937 113.176 133.89 113.048 133.82 112.933C133.75 112.818 133.657 112.718 133.548 112.639C133.217 112.475 132.848 112.402 132.48 112.428H131.837L131.821 121.478Z" fill="url(#paint21_linear_1139_2787)"/>
<path opacity="0.49" d="M198.16 222.08C198.16 224.33 196.33 226.16 194.08 226.16C191.83 226.16 190 224.33 190 222.08C190 219.83 191.83 218 194.08 218C196.33 218 198.16 219.83 198.16 222.08Z" stroke="white" stroke-width="2" stroke-miterlimit="10" stroke-linecap="round" stroke-linejoin="round"/>
<path opacity="0.49" d="M20.16 54.08C20.16 56.33 18.33 58.16 16.08 58.16C13.83 58.16 12 56.33 12 54.08C12 51.83 13.83 50 16.08 50C18.33 50 20.16 51.83 20.16 54.08Z" stroke="white" stroke-width="2" stroke-miterlimit="10" stroke-linecap="round" stroke-linejoin="round"/>
<path opacity="0.49" d="M191.806 120.775L191.805 131.872L201.418 126.322L191.806 120.775Z" stroke="white" stroke-width="2" stroke-miterlimit="10" stroke-linecap="round" stroke-linejoin="round"/>
<path opacity="0.49" d="M25.8064 224.775L25.805 235.872L35.4179 230.322L25.8064 224.775Z" stroke="white" stroke-width="2" stroke-miterlimit="10" stroke-linecap="round" stroke-linejoin="round"/>
<path opacity="0.49" d="M168 78.8257C170.42 76.4057 174.66 80.6457 177.08 78.2257C179.5 75.8057 175.26 71.5657 177.68 69.1457C180.1 66.7257 184.34 70.9657 186.76 68.5457C189.18 66.1257 184.94 61.8857 187.35 59.4657C189.77 57.0457 194.01 61.2857 196.43 58.8657C198.85 56.4457 194.61 52.2057 197.03 49.7757C199.45 47.3557 203.69 51.5957 206.12 49.1757" stroke="white" stroke-width="2" stroke-miterlimit="10" stroke-linecap="round" stroke-linejoin="round"/>
<path opacity="0.49" d="M30.0302 134.802C29.9066 131.382 23.9142 131.598 23.7907 128.178C23.6671 124.758 29.6595 124.541 29.5359 121.121C29.4124 117.701 23.42 117.917 23.2965 114.497C23.1729 111.077 29.1653 110.861 29.049 107.447C28.9255 104.027 22.9331 104.244 22.8096 100.823C22.686 97.4033 28.6783 97.1868 28.5616 93.7593C28.438 90.3391 22.4457 90.5556 22.3148 87.1286" stroke="white" stroke-miterlimit="10" stroke-linecap="round" stroke-linejoin="round"/>
<defs>
<linearGradient id="paint0_linear_1139_2787" x1="111.448" y1="1" x2="111.448" y2="142.377" gradientUnits="userSpaceOnUse">
<stop stop-color="#163172"/>
<stop offset="1" stop-color="#1E56A0"/>
</linearGradient>
<linearGradient id="paint1_linear_1139_2787" x1="61.6765" y1="19.6997" x2="61.6765" y2="41.2574" gradientUnits="userSpaceOnUse">
<stop stop-color="#163172"/>
<stop offset="1" stop-color="#1E56A0"/>
</linearGradient>
<linearGradient id="paint2_linear_1139_2787" x1="63.3397" y1="16.3218" x2="63.3397" y2="19.7275" gradientUnits="userSpaceOnUse">
<stop stop-color="#163172"/>
<stop offset="1" stop-color="#1E56A0"/>
</linearGradient>
<linearGradient id="paint3_linear_1139_2787" x1="61.091" y1="16.3169" x2="61.091" y2="19.6997" gradientUnits="userSpaceOnUse">
<stop stop-color="#163172"/>
<stop offset="1" stop-color="#1E56A0"/>
</linearGradient>
<linearGradient id="paint4_linear_1139_2787" x1="65.4355" y1="18.1398" x2="65.4355" y2="19.66" gradientUnits="userSpaceOnUse">
<stop stop-color="#163172"/>
<stop offset="1" stop-color="#1E56A0"/>
</linearGradient>
<linearGradient id="paint5_linear_1139_2787" x1="71.9566" y1="16.3234" x2="71.9566" y2="19.6838" gradientUnits="userSpaceOnUse">
<stop stop-color="#163172"/>
<stop offset="1" stop-color="#1E56A0"/>
</linearGradient>
<linearGradient id="paint6_linear_1139_2787" x1="68.1297" y1="16.3169" x2="68.1297" y2="19.6997" gradientUnits="userSpaceOnUse">
<stop stop-color="#163172"/>
<stop offset="1" stop-color="#1E56A0"/>
</linearGradient>
<linearGradient id="paint7_linear_1139_2787" x1="136.141" y1="27.4559" x2="136.141" y2="39.7649" gradientUnits="userSpaceOnUse">
<stop stop-color="#163172"/>
<stop offset="1" stop-color="#1E56A0"/>
</linearGradient>
<linearGradient id="paint8_linear_1139_2787" x1="110.69" y1="43.3735" x2="110.69" y2="87.2426" gradientUnits="userSpaceOnUse">
<stop stop-color="#163172"/>
<stop offset="1" stop-color="#1E56A0"/>
</linearGradient>
<linearGradient id="paint9_linear_1139_2787" x1="114.084" y1="42.4625" x2="114.084" y2="76.4538" gradientUnits="userSpaceOnUse">
<stop stop-color="#163172"/>
<stop offset="1" stop-color="#1E56A0"/>
</linearGradient>
<linearGradient id="paint10_linear_1139_2787" x1="97.0178" y1="95.2468" x2="97.0178" y2="107.399" gradientUnits="userSpaceOnUse">
<stop stop-color="#163172"/>
<stop offset="1" stop-color="#1E56A0"/>
</linearGradient>
<linearGradient id="paint11_linear_1139_2787" x1="104.512" y1="95.2489" x2="104.512" y2="107.419" gradientUnits="userSpaceOnUse">
<stop stop-color="#163172"/>
<stop offset="1" stop-color="#1E56A0"/>
</linearGradient>
<linearGradient id="paint12_linear_1139_2787" x1="110.861" y1="95.2489" x2="110.861" y2="107.399" gradientUnits="userSpaceOnUse">
<stop stop-color="#163172"/>
<stop offset="1" stop-color="#1E56A0"/>
</linearGradient>
<linearGradient id="paint13_linear_1139_2787" x1="117.085" y1="95.2489" x2="117.085" y2="107.419" gradientUnits="userSpaceOnUse">
<stop stop-color="#163172"/>
<stop offset="1" stop-color="#1E56A0"/>
</linearGradient>
<linearGradient id="paint14_linear_1139_2787" x1="124.403" y1="95.2468" x2="124.403" y2="107.399" gradientUnits="userSpaceOnUse">
<stop stop-color="#163172"/>
<stop offset="1" stop-color="#1E56A0"/>
</linearGradient>
<linearGradient id="paint15_linear_1139_2787" x1="87.9259" y1="110.872" x2="87.9259" y2="123.023" gradientUnits="userSpaceOnUse">
<stop stop-color="#163172"/>
<stop offset="1" stop-color="#1E56A0"/>
</linearGradient>
<linearGradient id="paint16_linear_1139_2787" x1="98.8337" y1="110.872" x2="98.8337" y2="123.023" gradientUnits="userSpaceOnUse">
<stop stop-color="#163172"/>
<stop offset="1" stop-color="#1E56A0"/>
</linearGradient>
<linearGradient id="paint17_linear_1139_2787" x1="105.953" y1="110.87" x2="105.953" y2="123.023" gradientUnits="userSpaceOnUse">
<stop stop-color="#163172"/>
<stop offset="1" stop-color="#1E56A0"/>
</linearGradient>
<linearGradient id="paint18_linear_1139_2787" x1="112.018" y1="110.872" x2="112.018" y2="123.023" gradientUnits="userSpaceOnUse">
<stop stop-color="#163172"/>
<stop offset="1" stop-color="#1E56A0"/>
</linearGradient>
<linearGradient id="paint19_linear_1139_2787" x1="117.567" y1="110.872" x2="117.567" y2="123.023" gradientUnits="userSpaceOnUse">
<stop stop-color="#163172"/>
<stop offset="1" stop-color="#1E56A0"/>
</linearGradient>
<linearGradient id="paint20_linear_1139_2787" x1="124.589" y1="110.872" x2="124.589" y2="123.023" gradientUnits="userSpaceOnUse">
<stop stop-color="#163172"/>
<stop offset="1" stop-color="#1E56A0"/>
</linearGradient>
<linearGradient id="paint21_linear_1139_2787" x1="132.966" y1="110.866" x2="132.966" y2="123.023" gradientUnits="userSpaceOnUse">
<stop stop-color="#163172"/>
<stop offset="1" stop-color="#1E56A0"/>
</linearGradient>
</defs>
</svg>
