<svg width="140" height="140" viewBox="0 0 140 140" fill="none" xmlns="http://www.w3.org/2000/svg">
<g filter="url(#filter0_i_375_247)">
<circle cx="70" cy="70" r="62" stroke="#D6E4F0" stroke-width="16"/>
</g>
<path d="M70 132C104.242 132 132 104.242 132 70C132 35.7583 104.242 8 70 8" stroke="url(#paint0_linear_375_247)" stroke-width="16" stroke-linecap="round"/>
<path d="M64.2503 57.32V52.04C64.2503 51.176 64.2263 50.416 64.1783 49.76C64.1303 49.088 64.0583 48.48 63.9623 47.936C63.8663 47.392 63.7543 46.88 63.6263 46.4C63.4983 45.904 63.3623 45.392 63.2183 44.864L64.5863 44.36C64.7623 44.952 64.9143 45.52 65.0423 46.064C65.1863 46.592 65.2983 47.152 65.3783 47.744C65.4743 48.32 65.5463 48.944 65.5943 49.616C65.6423 50.288 65.6663 51.056 65.6663 51.92V57.32H64.2503ZM72.7572 47.288C72.4212 49.048 71.9332 50.76 71.2932 52.424C70.6692 54.088 69.7972 55.8 68.6772 57.56L67.5252 56.768C68.0532 55.92 68.5492 55.056 69.0132 54.176C69.4772 53.296 69.9092 52.36 70.3092 51.368C70.7092 50.36 71.0692 49.288 71.3892 48.152C71.7092 47 71.9972 45.736 72.2532 44.36H73.2852C73.5412 45.736 73.8292 47 74.1492 48.152C74.4692 49.288 74.8292 50.36 75.2292 51.368C75.6292 52.36 76.0612 53.296 76.5252 54.176C76.9892 55.056 77.4852 55.92 78.0132 56.768L76.8372 57.56C75.7172 55.8 74.8452 54.088 74.2212 52.424C73.5972 50.76 73.1092 49.048 72.7572 47.288Z" fill="#1E56A0"/>
<path d="M65.0583 94.7C65.0583 95.4067 64.9449 96.0467 64.7183 96.62C64.4916 97.2067 64.1849 97.7 63.7983 98.1C63.4116 98.5133 62.9516 98.8333 62.4183 99.06C61.8983 99.2867 61.3316 99.4 60.7183 99.4H59.6383L59.5383 98.16H60.4183C61.0316 98.16 61.5583 98.06 61.9983 97.86C62.4249 97.6733 62.7783 97.42 63.0583 97.1C63.3383 96.78 63.5449 96.4067 63.6783 95.98C63.8116 95.5667 63.8783 95.14 63.8783 94.7V89.78H65.0583V94.7ZM65.1183 87.48H63.5983V86.16H65.1183V87.48ZM68.6288 98.16C69.1621 98.16 69.6288 98.0733 70.0288 97.9C70.4288 97.74 70.7688 97.5133 71.0488 97.22C71.3288 96.94 71.5421 96.6067 71.6888 96.22C71.8354 95.8333 71.9221 95.4267 71.9488 95H70.1288C69.5021 95 68.9888 94.9333 68.5888 94.8C68.1888 94.6667 67.8688 94.4733 67.6288 94.22C67.4021 93.9667 67.2421 93.66 67.1488 93.3C67.0688 92.94 67.0288 92.5333 67.0288 92.08C67.0288 91.6267 67.0954 91.1933 67.2288 90.78C67.3621 90.3667 67.5554 90.0067 67.8088 89.7C68.0621 89.38 68.3754 89.1267 68.7488 88.94C69.1354 88.7533 69.5821 88.66 70.0888 88.66C70.4888 88.66 70.8688 88.7267 71.2288 88.86C71.6021 88.9933 71.9288 89.2 72.2088 89.48C72.4888 89.76 72.7088 90.1267 72.8688 90.58C73.0288 91.0333 73.1088 91.58 73.1088 92.22V94.7C73.1088 95.3267 73.0088 95.92 72.8088 96.48C72.6088 97.0533 72.3221 97.5533 71.9488 97.98C71.5754 98.42 71.1154 98.7667 70.5688 99.02C70.0221 99.2733 69.4088 99.4 68.7288 99.4H66.8088L66.7088 98.16H68.6288ZM68.1688 92.02C68.1688 92.3267 68.2021 92.5933 68.2688 92.82C68.3354 93.0333 68.4488 93.2133 68.6087 93.36C68.7688 93.4933 68.9821 93.5933 69.2488 93.66C69.5288 93.7267 69.8821 93.76 70.3088 93.76H71.9688V92.38C71.9688 91.4867 71.7954 90.8467 71.4488 90.46C71.1021 90.06 70.6154 89.86 69.9888 89.86C69.4154 89.86 68.9688 90.06 68.6488 90.46C68.3288 90.8467 68.1688 91.3667 68.1688 92.02ZM72.9712 98.16H73.2912C73.8779 98.16 74.3846 98.06 74.8112 97.86C75.2379 97.6733 75.5846 97.42 75.8513 97.1C76.1313 96.78 76.3379 96.4067 76.4713 95.98C76.6046 95.5667 76.6713 95.14 76.6713 94.7V89.78H77.8513V94.7C77.8513 95.4067 77.7379 96.0467 77.5113 96.62C77.2846 97.2067 76.9779 97.7 76.5913 98.1C76.2046 98.5133 75.7446 98.8333 75.2113 99.06C74.6912 99.2867 74.1246 99.4 73.5112 99.4H73.0712L72.9712 98.16Z" fill="#1E56A0"/>
<defs>
<filter id="filter0_i_375_247" x="0" y="0" width="140" height="140" filterUnits="userSpaceOnUse" color-interpolation-filters="sRGB">
<feFlood flood-opacity="0" result="BackgroundImageFix"/>
<feBlend mode="normal" in="SourceGraphic" in2="BackgroundImageFix" result="shape"/>
<feColorMatrix in="SourceAlpha" type="matrix" values="0 0 0 0 0 0 0 0 0 0 0 0 0 0 0 0 0 0 127 0" result="hardAlpha"/>
<feOffset/>
<feGaussianBlur stdDeviation="5"/>
<feComposite in2="hardAlpha" operator="arithmetic" k2="-1" k3="1"/>
<feColorMatrix type="matrix" values="0 0 0 0 0 0 0 0 0 0 0 0 0 0 0 0 0 0 0.08 0"/>
<feBlend mode="normal" in2="shape" result="effect1_innerShadow_375_247"/>
</filter>
<linearGradient id="paint0_linear_375_247" x1="101" y1="8" x2="101" y2="132" gradientUnits="userSpaceOnUse">
<stop stop-color="#163172"/>
<stop offset="1" stop-color="#1E56A0"/>
</linearGradient>
</defs>
</svg>
