<svg width="18" height="18" viewBox="0 0 18 18" fill="none" xmlns="http://www.w3.org/2000/svg">
<path d="M8.99995 2.2002C11.2 2.2002 11.5 2.2002 12.4 2.2002C13.2 2.2002 13.6 2.4002 13.9 2.5002C14.3 2.7002 14.6 2.8002 14.9 3.1002C15.2 3.4002 15.4 3.7002 15.5 4.1002C15.6 4.4002 15.7 4.8002 15.8 5.6002C15.8 6.5002 15.8 6.7002 15.8 9.0002C15.8 11.3002 15.8 11.5002 15.8 12.4002C15.8 13.2002 15.6 13.6002 15.5 13.9002C15.3 14.3002 15.2 14.6002 14.9 14.9002C14.6 15.2002 14.3 15.4002 13.9 15.5002C13.6 15.6002 13.2 15.7002 12.4 15.8002C11.5 15.8002 11.3 15.8002 8.99995 15.8002C6.69995 15.8002 6.49995 15.8002 5.59995 15.8002C4.79995 15.8002 4.39995 15.6002 4.09995 15.5002C3.69995 15.3002 3.39995 15.2002 3.09995 14.9002C2.79995 14.6002 2.59995 14.3002 2.49995 13.9002C2.39995 13.6002 2.29995 13.2002 2.19995 12.4002C2.19995 11.5002 2.19995 11.3002 2.19995 9.0002C2.19995 6.7002 2.19995 6.5002 2.19995 5.6002C2.19995 4.8002 2.39995 4.4002 2.49995 4.1002C2.69995 3.7002 2.79995 3.4002 3.09995 3.1002C3.39995 2.8002 3.69995 2.6002 4.09995 2.5002C4.39995 2.4002 4.79995 2.3002 5.59995 2.2002C6.49995 2.2002 6.79995 2.2002 8.99995 2.2002ZM8.99995 0.700195C6.69995 0.700195 6.49995 0.700195 5.59995 0.700195C4.69995 0.700195 4.09995 0.900196 3.59995 1.1002C3.09995 1.3002 2.59995 1.6002 2.09995 2.1002C1.59995 2.6002 1.39995 3.0002 1.09995 3.6002C0.899952 4.1002 0.799951 4.7002 0.699951 5.6002C0.699951 6.5002 0.699951 6.8002 0.699951 9.0002C0.699951 11.3002 0.699951 11.5002 0.699951 12.4002C0.699951 13.3002 0.899952 13.9002 1.09995 14.4002C1.29995 14.9002 1.59995 15.4002 2.09995 15.9002C2.59995 16.4002 2.99995 16.6002 3.59995 16.9002C4.09995 17.1002 4.69995 17.2002 5.59995 17.3002C6.49995 17.3002 6.79995 17.3002 8.99995 17.3002C11.2 17.3002 11.5 17.3002 12.4 17.3002C13.3 17.3002 13.9 17.1002 14.4 16.9002C14.9 16.7002 15.4 16.4002 15.9 15.9002C16.4 15.4002 16.6 15.0002 16.9 14.4002C17.1 13.9002 17.1999 13.3002 17.2999 12.4002C17.2999 11.5002 17.2999 11.2002 17.2999 9.0002C17.2999 6.8002 17.2999 6.5002 17.2999 5.6002C17.2999 4.7002 17.1 4.1002 16.9 3.6002C16.7 3.1002 16.4 2.6002 15.9 2.1002C15.4 1.6002 15 1.4002 14.4 1.1002C13.9 0.900196 13.3 0.800195 12.4 0.700195C11.5 0.700195 11.3 0.700195 8.99995 0.700195Z" fill="white"/>
<path d="M8.99995 4.7002C6.59995 4.7002 4.69995 6.6002 4.69995 9.0002C4.69995 11.4002 6.59995 13.3002 8.99995 13.3002C11.4 13.3002 13.3 11.4002 13.3 9.0002C13.3 6.6002 11.4 4.7002 8.99995 4.7002ZM8.99995 11.8002C7.49995 11.8002 6.19995 10.6002 6.19995 9.0002C6.19995 7.5002 7.39995 6.2002 8.99995 6.2002C10.5 6.2002 11.8 7.4002 11.8 9.0002C11.8 10.5002 10.5 11.8002 8.99995 11.8002Z" fill="white"/>
<path d="M13.4 5.6002C13.9522 5.6002 14.4 5.15248 14.4 4.6002C14.4 4.04791 13.9522 3.6002 13.4 3.6002C12.8477 3.6002 12.4 4.04791 12.4 4.6002C12.4 5.15248 12.8477 5.6002 13.4 5.6002Z" fill="white"/>
</svg>
