<svg width="24" height="24" viewBox="0 0 24 24" fill="none" xmlns="http://www.w3.org/2000/svg">
<path opacity="0.4" d="M15.48 3H7.52C4.07 3 2 5.06 2 8.52V16.47C2 19.94 4.07 22 7.52 22H15.47C18.93 22 20.99 19.94 20.99 16.48V8.52C21 5.06 18.93 3 15.48 3Z" fill="#292D32"/>
<path d="M15.9771 8.02698C14.6307 6.67276 13.3145 6.64267 11.9305 8.02698L11.0806 8.86961C11.0054 8.94485 10.9828 9.05018 11.0129 9.14798C11.5394 10.9912 13.0136 12.4658 14.8564 12.9925C14.8789 13 14.9165 13 14.9391 13C15.0143 13 15.0895 12.9699 15.1422 12.9172L15.9771 12.0746C16.6615 11.39 17 10.7354 17 10.0658C17 9.38873 16.6615 8.71914 15.9771 8.02698Z" fill="#292D32"/>
<path d="M13.478 13.3952C13.2973 13.3083 13.1233 13.2214 12.9627 13.1211C12.8288 13.0409 12.695 12.9541 12.5678 12.8605C12.4607 12.7937 12.3402 12.6934 12.2198 12.5931C12.2064 12.5865 12.1662 12.553 12.1127 12.4996C11.9052 12.3325 11.6844 12.1053 11.4769 11.858C11.4635 11.8446 11.4234 11.8045 11.3899 11.7444C11.323 11.6708 11.2226 11.5439 11.1356 11.4035C11.062 11.3099 10.975 11.1763 10.8947 11.0359C10.7943 10.8688 10.7073 10.7018 10.627 10.528C10.5399 10.3409 10.473 10.1671 10.4128 10L6.81219 13.5957C6.57795 13.8296 6.35041 14.2707 6.30356 14.5982L6.01578 16.5898C5.95555 17.0109 6.06932 17.4052 6.33033 17.6658C6.55118 17.8864 6.85235 18 7.18698 18C7.26059 18 7.33421 17.9933 7.40783 17.9866L9.39552 17.7059C9.72346 17.6591 10.1652 17.4386 10.3994 17.198L14 13.6023C13.8327 13.5489 13.6654 13.4754 13.478 13.3952Z" fill="#292D32"/>
</svg>
