<svg width="56" height="56" viewBox="0 0 56 56" fill="none" xmlns="http://www.w3.org/2000/svg">
<path d="M51.3334 13.3233V35.6767C51.3334 42.1167 46.1068 47.3433 39.6667 47.3433H16.3334C15.2601 47.3433 14.2334 47.2033 13.2301 46.9233C11.7834 46.5267 11.3167 44.6833 12.3901 43.61L37.1934 18.8067C37.7067 18.2933 38.4767 18.1767 39.2001 18.3167C39.9467 18.4567 40.7634 18.2467 41.3467 17.6867L47.3434 11.6667C49.5368 9.47332 51.3334 10.1967 51.3334 13.3233Z" fill="#1E56A0"/>
<path opacity="0.4" d="M34.1601 17.1734L9.73008 41.6034C8.61008 42.7234 6.74341 42.4434 5.99675 41.0434C5.13341 39.4567 4.66675 37.6134 4.66675 35.6767V13.3234C4.66675 10.1967 6.46341 9.47338 8.65675 11.6667L14.6767 17.71C15.5867 18.5967 17.0801 18.5967 17.9901 17.71L26.3434 9.33338C27.2534 8.42338 28.7467 8.42338 29.6567 9.33338L34.1834 13.86C35.0701 14.77 35.0701 16.2634 34.1601 17.1734Z" fill="#1E56A0"/>
</svg>
