<svg width="56" height="56" viewBox="0 0 56 56" fill="none" xmlns="http://www.w3.org/2000/svg">
<path opacity="0.4" d="M39.1301 44.2864H16.8701C15.8901 44.2864 15.0034 43.6564 14.6767 42.7464L4.97007 15.5631C4.20007 13.3931 6.67341 11.5498 8.51674 12.8798L17.8501 19.5531C19.0867 20.4398 20.8601 19.9031 21.3967 18.4798L25.8067 6.71977C26.5534 4.68977 29.4234 4.68977 30.1701 6.71977L34.5801 18.4798C35.1167 19.9264 36.8667 20.4398 38.1267 19.5531L47.4601 12.8798C49.3267 11.5498 51.7767 13.4164 51.0067 15.5631L41.3001 42.7464C40.9967 43.6564 40.1101 44.2864 39.1301 44.2864Z" fill="#1E56A0"/>
<path d="M39.6666 51.3335H16.3333C15.3766 51.3335 14.5833 50.5402 14.5833 49.5835C14.5833 48.6268 15.3766 47.8335 16.3333 47.8335H39.6666C40.6233 47.8335 41.4166 48.6268 41.4166 49.5835C41.4166 50.5402 40.6233 51.3335 39.6666 51.3335Z" fill="#1E56A0"/>
<path d="M33.8334 34.4165H22.1667C21.2101 34.4165 20.4167 33.6232 20.4167 32.6665C20.4167 31.7098 21.2101 30.9165 22.1667 30.9165H33.8334C34.7901 30.9165 35.5834 31.7098 35.5834 32.6665C35.5834 33.6232 34.7901 34.4165 33.8334 34.4165Z" fill="#1E56A0"/>
</svg>
