<svg width="56" height="56" viewBox="0 0 56 56" fill="none" xmlns="http://www.w3.org/2000/svg">
<path opacity="0.4" d="M42 47.8336H39.6667V47.2502C39.6667 44.6836 37.5667 42.5836 35 42.5836H29.75V37.2402C29.1667 37.3102 28.5833 37.3336 28 37.3336C27.4167 37.3336 26.8333 37.3102 26.25 37.2402V42.5836H21C18.4333 42.5836 16.3333 44.6836 16.3333 47.2502V47.8336H14C13.0433 47.8336 12.25 48.6269 12.25 49.5836C12.25 50.5402 13.0433 51.3336 14 51.3336H42C42.9567 51.3336 43.75 50.5402 43.75 49.5836C43.75 48.6269 42.9567 47.8336 42 47.8336Z" fill="#1E56A0"/>
<path opacity="0.4" d="M12.8801 27.1598C11.3401 26.5765 9.98673 25.6198 8.9134 24.5465C6.7434 22.1432 5.32007 19.2732 5.32007 15.9132C5.32007 12.5532 7.95673 9.9165 11.3167 9.9165H12.6234C12.0167 11.1532 11.6667 12.5298 11.6667 13.9998V20.9998C11.6667 23.1932 12.0867 25.2698 12.8801 27.1598Z" fill="#1E56A0"/>
<path opacity="0.4" d="M50.6801 15.9132C50.6801 19.2732 49.2568 22.1432 47.0868 24.5465C46.0135 25.6198 44.6601 26.5765 43.1201 27.1598C43.9135 25.2698 44.3335 23.1932 44.3335 20.9998V13.9998C44.3335 12.5298 43.9835 11.1532 43.3768 9.9165H44.6835C48.0435 9.9165 50.6801 12.5532 50.6801 15.9132Z" fill="#1E56A0"/>
<path d="M35.0001 4.6665H21.0001C15.8434 4.6665 11.6667 8.84317 11.6667 13.9998V20.9998C11.6667 30.0298 18.9701 37.3332 28.0001 37.3332C37.0301 37.3332 44.3334 30.0298 44.3334 20.9998V13.9998C44.3334 8.84317 40.1567 4.6665 35.0001 4.6665ZM34.6267 19.7165L33.1801 21.4898C32.9468 21.7465 32.7834 22.2598 32.8068 22.6098L32.9467 24.8965C33.0401 26.2965 32.0367 27.0198 30.7301 26.5065L28.6068 25.6665C28.2801 25.5498 27.7201 25.5498 27.3934 25.6665L25.2701 26.5065C23.9634 27.0198 22.9601 26.2965 23.0534 24.8965L23.1934 22.6098C23.2167 22.2598 23.0534 21.7465 22.8201 21.4898L21.3734 19.7165C20.4634 18.6432 20.8601 17.4532 22.2134 17.1032L24.4301 16.5432C24.7801 16.4498 25.2001 16.1232 25.3867 15.8198L26.6234 13.9065C27.3934 12.7165 28.6067 12.7165 29.3767 13.9065L30.6134 15.8198C30.8001 16.1232 31.2201 16.4498 31.5701 16.5432L33.7867 17.1032C35.1401 17.4532 35.5368 18.6432 34.6267 19.7165Z" fill="#1E56A0"/>
<path opacity="0.4" d="M34.6266 19.7167L33.18 21.49C32.9466 21.7467 32.7833 22.26 32.8066 22.61L32.9466 24.8967C33.04 26.2967 32.0366 27.02 30.73 26.5067L28.6066 25.6667C28.28 25.55 27.72 25.55 27.3933 25.6667L25.27 26.5067C23.9633 27.02 22.96 26.2967 23.0533 24.8967L23.1933 22.61C23.2166 22.26 23.0533 21.7467 22.82 21.49L21.3733 19.7167C20.4633 18.6433 20.86 17.4533 22.2133 17.1033L24.43 16.5433C24.78 16.45 25.2 16.1233 25.3866 15.82L26.6233 13.9067C27.3933 12.7167 28.6066 12.7167 29.3766 13.9067L30.6133 15.82C30.8 16.1233 31.22 16.45 31.57 16.5433L33.7866 17.1033C35.14 17.4533 35.5366 18.6433 34.6266 19.7167Z" fill="#1E56A0"/>
</svg>
