<svg width="32" height="32" viewBox="0 0 32 32" fill="none" xmlns="http://www.w3.org/2000/svg">
<path d="M28.7467 14.3202L26.9333 12.2136C26.5867 11.8136 26.3067 11.0669 26.3067 10.5336V8.26691C26.3067 6.85357 25.1467 5.69357 23.7333 5.69357H21.4667C20.9467 5.69357 20.1867 5.41357 19.7867 5.06691L17.68 3.25357C16.76 2.46691 15.2533 2.46691 14.32 3.25357L12.2267 5.08024C11.8267 5.41357 11.0667 5.69357 10.5467 5.69357H8.24001C6.82667 5.69357 5.66667 6.85357 5.66667 8.26691V10.5469C5.66667 11.0669 5.38667 11.8136 5.05334 12.2136L3.25334 14.3336C2.48001 15.2536 2.48001 16.7469 3.25334 17.6669L5.05334 19.7869C5.38667 20.1869 5.66667 20.9336 5.66667 21.4536V23.7336C5.66667 25.1469 6.82667 26.3069 8.24001 26.3069H10.5467C11.0667 26.3069 11.8267 26.5869 12.2267 26.9336L14.3333 28.7469C15.2533 29.5336 16.76 29.5336 17.6933 28.7469L19.8 26.9336C20.2 26.5869 20.9467 26.3069 21.48 26.3069H23.7467C25.16 26.3069 26.32 25.1469 26.32 23.7336V21.4669C26.32 20.9469 26.6 20.1869 26.9467 19.7869L28.76 17.6802C29.5333 16.7602 29.5333 15.2402 28.7467 14.3202ZM21.5467 13.4802L15.1067 19.9202C14.92 20.1069 14.6667 20.2136 14.4 20.2136C14.1333 20.2136 13.88 20.1069 13.6933 19.9202L10.4667 16.6936C10.08 16.3069 10.08 15.6669 10.4667 15.2802C10.8533 14.8936 11.4933 14.8936 11.88 15.2802L14.4 17.8002L20.1333 12.0669C20.52 11.6802 21.16 11.6802 21.5467 12.0669C21.9333 12.4536 21.9333 13.0936 21.5467 13.4802Z" fill="#00966D"/>
</svg>
