<svg width="24" height="25" viewBox="0 0 24 25" fill="none" xmlns="http://www.w3.org/2000/svg">
<g id="Iconly/Bulk/Category">
<g id="Category">
<path id="Fill 1" opacity="0.4" d="M16.0754 2.81824H19.4614C20.8636 2.81824 21.9999 3.96409 21.9999 5.3782V8.79276C21.9999 10.2069 20.8636 11.3527 19.4614 11.3527H16.0754C14.6731 11.3527 13.5369 10.2069 13.5369 8.79276V5.3782C13.5369 3.96409 14.6731 2.81824 16.0754 2.81824Z" fill="#163172"/>
<path id="Combined Shape" fill-rule="evenodd" clip-rule="evenodd" d="M4.53852 2.81824H7.92449C9.32676 2.81824 10.463 3.96409 10.463 5.3782V8.79276C10.463 10.2069 9.32676 11.3527 7.92449 11.3527H4.53852C3.13626 11.3527 2 10.2069 2 8.79276V5.3782C2 3.96409 3.13626 2.81824 4.53852 2.81824ZM4.53852 14.2837H7.92449C9.32676 14.2837 10.463 15.4296 10.463 16.8437V20.2583C10.463 21.6714 9.32676 22.8182 7.92449 22.8182H4.53852C3.13626 22.8182 2 21.6714 2 20.2583V16.8437C2 15.4296 3.13626 14.2837 4.53852 14.2837ZM19.4615 14.2837H16.0755C14.6732 14.2837 13.537 15.4296 13.537 16.8437V20.2583C13.537 21.6714 14.6732 22.8182 16.0755 22.8182H19.4615C20.8637 22.8182 22 21.6714 22 20.2583V16.8437C22 15.4296 20.8637 14.2837 19.4615 14.2837Z" fill="#163172"/>
</g>
</g>
</svg>
