<svg width="20" height="18" viewBox="0 0 20 18" fill="none" xmlns="http://www.w3.org/2000/svg">
<path fill-rule="evenodd" clip-rule="evenodd" d="M7.7085 9.50762C10.2335 9.50762 12.2576 7.45738 12.2576 4.89969C12.2576 2.34199 10.2335 0.291748 7.7085 0.291748C5.18347 0.291748 3.15942 2.34199 3.15942 4.89969C3.15942 7.45738 5.18347 9.50762 7.7085 9.50762ZM7.7085 11.764C3.99987 11.764 0.833496 12.357 0.833496 14.726C0.833496 17.0941 3.9806 17.7084 7.7085 17.7084C11.4162 17.7084 14.5835 17.1155 14.5835 14.7464C14.5835 12.3774 11.4364 11.764 7.7085 11.764ZM17.2399 6.78896H18.3428C18.7967 6.78896 19.1668 7.16428 19.1668 7.6246C19.1668 8.08493 18.7967 8.46025 18.3428 8.46025H17.2399V9.53943C17.2399 9.99976 16.8708 10.3751 16.4159 10.3751C15.9619 10.3751 15.5918 9.99976 15.5918 9.53943V8.46025H14.4909C14.036 8.46025 13.6668 8.08493 13.6668 7.6246C13.6668 7.16428 14.036 6.78896 14.4909 6.78896H15.5918V5.71073C15.5918 5.25041 15.9619 4.87508 16.4159 4.87508C16.8708 4.87508 17.2399 5.25041 17.2399 5.71073V6.78896Z" fill="white"/>
</svg>
