<svg width="44" height="43" viewBox="0 0 44 43" fill="none" xmlns="http://www.w3.org/2000/svg">
<path d="M41.3757 22.8274C41.1572 22.5791 40.8497 22.4269 40.5198 22.4039C40.1899 22.3808 39.8642 22.4887 39.6133 22.7042L38.795 23.4155L38.8543 22.5676C39.0959 19.1202 38.2609 15.6829 36.4646 12.7305C34.6683 9.77823 31.9994 7.45665 28.8268 6.08661C25.6541 4.71657 22.1342 4.3657 18.7535 5.08247C15.3728 5.79924 12.2982 7.54828 9.95446 10.0879C9.84291 10.2085 9.7562 10.3498 9.69927 10.5039C9.64235 10.6579 9.61632 10.8217 9.62269 10.9858C9.62905 11.1499 9.66768 11.3112 9.73637 11.4604C9.80505 11.6096 9.90245 11.7438 10.023 11.8553C10.1436 11.9669 10.2849 12.0536 10.439 12.1105C10.593 12.1674 10.7568 12.1935 10.9209 12.1871C11.085 12.1807 11.2463 12.1421 11.3955 12.0734C11.5447 12.0047 11.6789 11.9073 11.7904 11.7868C13.7827 9.62755 16.3963 8.14035 19.2703 7.53066C22.1443 6.92098 25.1366 7.21891 27.8339 8.3833C30.5313 9.54768 32.8004 11.521 34.3278 14.0307C35.8552 16.5404 36.5654 19.4625 36.3604 22.3932L36.3023 23.2245L35.591 22.4062C35.4854 22.2757 35.3546 22.1678 35.2064 22.089C35.0582 22.0101 34.8956 21.962 34.7284 21.9473C34.5612 21.9326 34.3927 21.9518 34.2331 22.0037C34.0734 22.0555 33.9258 22.139 33.7992 22.2491C33.6725 22.3593 33.5693 22.4938 33.4957 22.6447C33.4221 22.7955 33.3797 22.9597 33.3709 23.1273C33.3622 23.295 33.3873 23.4626 33.4447 23.6204C33.5022 23.7781 33.5908 23.9226 33.7054 24.0454L36.396 27.1406C36.5033 27.2615 36.6324 27.3612 36.7764 27.4345C36.9238 27.5116 37.0857 27.557 37.2516 27.568C37.4174 27.5786 37.5837 27.5561 37.7407 27.5019C37.8936 27.4494 38.0353 27.3686 38.1584 27.2638L41.2536 24.5732C41.3763 24.4666 41.4768 24.3369 41.5494 24.1915C41.622 24.0461 41.6652 23.8877 41.6765 23.7256C41.6878 23.5635 41.6671 23.4007 41.6155 23.2466C41.5639 23.0925 41.4824 22.95 41.3757 22.8274Z" fill="url(#paint0_linear_55_307)"/>
<path d="M34.3941 30.9437C34.2745 30.8313 34.1335 30.744 33.9796 30.6869C33.8257 30.6299 33.6619 30.6042 33.498 30.6114C33.334 30.6186 33.1731 30.6586 33.0248 30.7289C32.8765 30.7993 32.7437 30.8986 32.6344 31.0211C31.196 32.5863 29.4229 33.8067 27.4472 34.5914C25.4715 35.376 23.3442 35.7047 21.2239 35.5528C17.4735 35.2849 13.9824 33.5409 11.5157 30.7033C9.04898 27.8657 7.80789 24.1658 8.06445 20.4147L8.12258 19.5834L8.8339 20.4017C8.941 20.5261 9.07181 20.628 9.21871 20.7014C9.36561 20.7748 9.52566 20.8182 9.6895 20.8291C9.8522 20.8393 10.0153 20.816 10.1686 20.7606C10.3219 20.7052 10.4622 20.619 10.5808 20.5071C10.8291 20.2887 10.9813 19.9811 11.0044 19.6512C11.0274 19.3213 10.9195 18.9956 10.704 18.7447L8.02836 15.6506C7.91039 15.5342 7.77675 15.4349 7.63131 15.3555C7.48659 15.2793 7.3276 15.234 7.16444 15.2226C7.00128 15.2112 6.83753 15.2339 6.68362 15.2892C6.53364 15.348 6.39296 15.4282 6.26599 15.5273L3.17243 18.2181C3.04193 18.3237 2.93404 18.4545 2.85519 18.6027C2.77634 18.7509 2.72815 18.9134 2.71349 19.0806C2.69883 19.2479 2.718 19.4163 2.76985 19.576C2.82171 19.7356 2.90519 19.8832 3.01532 20.0099C3.12545 20.1366 3.25997 20.2398 3.41085 20.3134C3.56173 20.3869 3.72589 20.4294 3.89353 20.4381C4.06116 20.4469 4.22884 20.4218 4.38657 20.3643C4.54429 20.3068 4.68883 20.2182 4.81155 20.1037L5.62983 19.3924L5.57054 20.2403C5.26683 24.6531 6.726 29.0061 9.62788 32.3443C12.5298 35.6826 16.6374 37.7334 21.0495 38.0468C23.5431 38.225 26.0447 37.8386 28.3684 36.9163C30.692 35.9941 32.7777 34.5597 34.4704 32.72C34.5827 32.5987 34.6699 32.4563 34.7269 32.3012C34.7839 32.146 34.8095 31.9811 34.8025 31.8159C34.7954 31.6508 34.7556 31.4887 34.6855 31.3389C34.6155 31.1892 34.5164 31.0549 34.3941 30.9437Z" fill="url(#paint1_linear_55_307)"/>
<path d="M27.9896 21.2064C28.4981 20.5564 28.7979 19.7678 28.8495 18.9442C28.8974 17.8488 28.5231 16.7769 27.8038 15.9494C27.0844 15.1219 26.075 14.602 24.9837 14.497L23.6203 14.4017L23.7366 12.7391C23.7597 12.4084 23.6505 12.082 23.433 11.8318C23.2155 11.5816 22.9075 11.428 22.5768 11.4049C22.2461 11.3818 21.9197 11.491 21.6695 11.7085C21.4193 11.926 21.2658 12.234 21.2427 12.5647L21.1264 14.2273L17.7181 13.9889C17.3879 13.968 17.0627 14.078 16.813 14.2951C16.5633 14.5121 16.4092 14.8188 16.3839 15.1487L15.5701 26.787C15.5492 27.1171 15.6592 27.4423 15.8762 27.692C16.0933 27.9417 16.4 28.0958 16.7298 28.1211L20.1382 28.3594L20.0219 30.022C19.9988 30.3528 20.108 30.6791 20.3255 30.9293C20.543 31.1795 20.851 31.3331 21.1817 31.3562C21.5124 31.3793 21.8388 31.2701 22.089 31.0526C22.3392 30.8351 22.4927 30.5271 22.5158 30.1964L22.6321 28.5338L25.0429 28.7024C26.196 28.8357 27.355 28.5069 28.2663 27.7879C29.1777 27.0688 29.7671 26.0181 29.9057 24.8656C29.9417 24.1402 29.783 23.4184 29.4461 22.775C29.1092 22.1316 28.6063 21.59 27.9896 21.2064ZM18.7906 16.5701L24.8093 16.9909C25.2387 17.0499 25.6322 17.2628 25.9165 17.5899C26.2009 17.9171 26.3569 18.3363 26.3556 18.7698C26.3248 19.2107 26.12 19.6214 25.7864 19.9114C25.4528 20.2014 25.0177 20.347 24.5767 20.3161L18.5581 19.8953L18.7906 16.5701ZM25.2173 26.2085L18.1512 25.7144L18.3837 22.3892L25.4498 22.8833C25.9478 22.8699 26.4315 23.0513 26.7979 23.3889C27.1643 23.7265 27.3845 24.1937 27.4118 24.6912C27.3156 25.1801 27.0324 25.6121 26.6226 25.8954C26.2128 26.1788 25.7086 26.2911 25.2173 26.2085Z" fill="url(#paint2_linear_55_307)"/>
<defs>
<linearGradient id="paint0_linear_55_307" x1="26.5113" y1="4.97952" x2="24.9917" y2="26.7107" gradientUnits="userSpaceOnUse">
<stop stop-color="#163172"/>
<stop offset="1" stop-color="#1E56A0"/>
</linearGradient>
<linearGradient id="paint1_linear_55_307" x1="19.417" y1="16.0794" x2="17.8963" y2="37.8263" gradientUnits="userSpaceOnUse">
<stop stop-color="#163172"/>
<stop offset="1" stop-color="#1E56A0"/>
</linearGradient>
<linearGradient id="paint2_linear_55_307" x1="23.7406" y1="11.4863" x2="22.3455" y2="31.4376" gradientUnits="userSpaceOnUse">
<stop stop-color="#163172"/>
<stop offset="1" stop-color="#1E56A0"/>
</linearGradient>
</defs>
</svg>
