<svg width="24" height="24" viewBox="0 0 24 24" fill="none" xmlns="http://www.w3.org/2000/svg">
<path d="M5.00001 15C3.93914 15 2.92173 15.4214 2.17158 16.1716C1.42143 16.9217 1.00001 17.9391 1.00001 19C0.998583 19.7272 1.1994 20.4404 1.58001 21.06C1.93254 21.6525 2.43329 22.143 3.03297 22.4831C3.63265 22.8233 4.31057 23.0014 5.00001 23C5.97048 23.0051 6.90806 22.6486 7.63001 22C7.94533 21.7343 8.21256 21.4163 8.42001 21.06C8.80062 20.4404 9.00143 19.7272 9.00001 19C9.00001 17.9391 8.57858 16.9217 7.82843 16.1716C7.07829 15.4214 6.06087 15 5.00001 15V15ZM7.07001 18.57L4.94001 20.54C4.80063 20.6675 4.6189 20.7388 4.43001 20.74C4.33148 20.7404 4.23388 20.7211 4.14288 20.6833C4.05188 20.6455 3.96932 20.59 3.90001 20.52L2.91001 19.53C2.77753 19.3878 2.7054 19.1998 2.70883 19.0055C2.71226 18.8112 2.79097 18.6258 2.92839 18.4884C3.0658 18.351 3.25118 18.2723 3.44549 18.2688C3.63979 18.2654 3.82783 18.3375 3.97001 18.47L4.45001 18.95L6.05001 17.47C6.19588 17.3347 6.3895 17.263 6.58829 17.2705C6.78708 17.278 6.97475 17.3641 7.11001 17.51C7.24527 17.6559 7.31704 17.8495 7.30954 18.0483C7.30204 18.2471 7.21588 18.4347 7.07001 18.57Z" fill="white"/>
<path d="M14.85 3.9498V7.7498H13.35V3.9498C13.3499 3.88437 13.3337 3.81997 13.3029 3.76225C13.2721 3.70453 13.2276 3.65525 13.1733 3.61873C13.119 3.5822 13.0566 3.55956 12.9915 3.55277C12.9264 3.54599 12.8607 3.55527 12.8 3.5798L4.87001 6.5698C4.61229 6.66677 4.3906 6.84061 4.23498 7.06778C4.07937 7.29495 3.99734 7.56446 4.00001 7.8398V8.5098C3.53346 8.85835 3.15486 9.31113 2.89442 9.83201C2.63398 10.3529 2.49892 10.9274 2.50001 11.5098V7.8398C2.49872 7.26043 2.67416 6.69444 3.00292 6.21738C3.33169 5.74031 3.79813 5.37486 4.34001 5.1698L12.28 2.1698C12.4947 2.09133 12.7214 2.05073 12.95 2.0498C13.4535 2.05112 13.936 2.25173 14.2921 2.60776C14.6481 2.96379 14.8487 3.4463 14.85 3.9498Z" fill="white"/>
<path d="M21.4949 14.5002V15.5002C21.495 15.6311 21.4436 15.7568 21.352 15.8503C21.2604 15.9438 21.1358 15.9976 21.0049 16.0002H19.5499C19.2924 16.0071 19.0415 15.9176 18.8464 15.7493C18.6513 15.581 18.526 15.346 18.4949 15.0902C18.4815 14.9438 18.5005 14.7961 18.5506 14.6578C18.6007 14.5196 18.6807 14.394 18.7849 14.2902C18.8761 14.1959 18.9858 14.1214 19.1071 14.0715C19.2284 14.0216 19.3588 13.9973 19.4899 14.0002H20.9949C21.1275 14.0002 21.2547 14.0529 21.3485 14.1467C21.4422 14.2404 21.4949 14.3676 21.4949 14.5002Z" fill="white"/>
<path d="M19.48 12.95H20.5C20.7652 12.95 21.0196 12.8447 21.2071 12.6571C21.3946 12.4696 21.5 12.2152 21.5 11.95V11.51C21.4979 10.5135 21.1011 9.55831 20.3964 8.85363C19.6917 8.14895 18.7366 7.75213 17.74 7.75002H6.26001C5.44352 7.74748 4.64905 8.01465 4.00001 8.51002C3.53346 8.85856 3.15486 9.31134 2.89442 9.83222C2.63398 10.3531 2.49891 10.9277 2.50001 11.51V13.29C2.50428 13.3786 2.52942 13.4649 2.57337 13.5419C2.61732 13.6189 2.67884 13.6845 2.75292 13.7332C2.82699 13.7819 2.91154 13.8125 2.99965 13.8224C3.08777 13.8322 3.17698 13.8211 3.26001 13.79C3.82032 13.5991 4.40808 13.5012 5.00001 13.5C6.45789 13.5027 7.8553 14.083 8.88617 15.1139C9.91705 16.1447 10.4974 17.5421 10.5 19C10.4834 19.7617 10.3169 20.5127 10.01 21.21C9.97171 21.2929 9.95438 21.384 9.95955 21.4751C9.96472 21.5663 9.99222 21.6548 10.0396 21.7328C10.0871 21.8109 10.1529 21.8761 10.2315 21.9227C10.31 21.9692 10.3988 21.9958 10.49 22H17.74C18.7366 21.9979 19.6917 21.6011 20.3964 20.8964C21.1011 20.1917 21.4979 19.2366 21.5 18.24V18.05C21.5 17.7848 21.3946 17.5304 21.2071 17.3429C21.0196 17.1554 20.7652 17.05 20.5 17.05H19.63C19.158 17.0628 18.6946 16.9213 18.3103 16.647C17.9259 16.3727 17.6414 15.9806 17.5 15.53C17.4042 15.1819 17.4037 14.8144 17.4987 14.466C17.5937 14.1177 17.7807 13.8013 18.04 13.55C18.2273 13.3583 18.4514 13.2064 18.6989 13.1033C18.9463 13.0002 19.212 12.9481 19.48 12.95ZM14 12.75H9.00001C8.80109 12.75 8.61033 12.671 8.46968 12.5303C8.32902 12.3897 8.25001 12.1989 8.25001 12C8.25001 11.8011 8.32902 11.6103 8.46968 11.4697C8.61033 11.329 8.80109 11.25 9.00001 11.25H14C14.1989 11.25 14.3897 11.329 14.5303 11.4697C14.671 11.6103 14.75 11.8011 14.75 12C14.75 12.1989 14.671 12.3897 14.5303 12.5303C14.3897 12.671 14.1989 12.75 14 12.75Z" fill="white"/>
</svg>
